G75*
%MOIN*%
%OFA0B0*%
%FSLAX25Y25*%
%IPPOS*%
%LPD*%
%AMOC8*
5,1,8,0,0,1.08239X$1,22.5*
%
%ADD10C,0.00600*%
%ADD11R,0.07087X0.06299*%
%ADD12C,0.08858*%
%ADD13C,0.10335*%
%ADD14R,0.04331X0.03937*%
%ADD15R,0.03937X0.04331*%
%ADD16C,0.06000*%
%ADD17C,0.06000*%
%ADD18OC8,0.06000*%
%ADD19R,0.02835X0.07008*%
%ADD20R,0.02362X0.08661*%
%ADD21R,0.05118X0.04134*%
%ADD22C,0.05937*%
%ADD23OC8,0.08850*%
%ADD24C,0.08850*%
%ADD25C,0.01600*%
%ADD26OC8,0.03962*%
%ADD27C,0.05000*%
%ADD28C,0.02400*%
D10*
X0004701Y0026596D02*
X0003633Y0027664D01*
X0004701Y0026596D02*
X0006836Y0026596D01*
X0007904Y0027664D01*
X0007904Y0028731D01*
X0006836Y0029799D01*
X0004701Y0029799D01*
X0003633Y0030866D01*
X0003633Y0031934D01*
X0004701Y0033002D01*
X0006836Y0033002D01*
X0007904Y0031934D01*
X0010079Y0029799D02*
X0010079Y0027664D01*
X0011146Y0026596D01*
X0013282Y0026596D01*
X0014349Y0027664D01*
X0014349Y0029799D01*
X0013282Y0030866D01*
X0011146Y0030866D01*
X0010079Y0029799D01*
X0016524Y0033002D02*
X0017592Y0033002D01*
X0017592Y0026596D01*
X0018659Y0026596D02*
X0016524Y0026596D01*
X0020821Y0027664D02*
X0021889Y0026596D01*
X0025092Y0026596D01*
X0025092Y0033002D01*
X0025092Y0030866D02*
X0021889Y0030866D01*
X0020821Y0029799D01*
X0020821Y0027664D01*
X0027267Y0027664D02*
X0028334Y0026596D01*
X0030470Y0026596D01*
X0031537Y0028731D02*
X0027267Y0028731D01*
X0027267Y0027664D02*
X0027267Y0029799D01*
X0028334Y0030866D01*
X0030470Y0030866D01*
X0031537Y0029799D01*
X0031537Y0028731D01*
X0033712Y0028731D02*
X0035847Y0030866D01*
X0036915Y0030866D01*
X0033712Y0030866D02*
X0033712Y0026596D01*
X0030127Y0021191D02*
X0031194Y0020123D01*
X0031194Y0019055D01*
X0030127Y0017988D01*
X0026924Y0017988D01*
X0026924Y0014785D02*
X0026924Y0021191D01*
X0030127Y0021191D01*
X0030127Y0017988D02*
X0031194Y0016920D01*
X0031194Y0015853D01*
X0030127Y0014785D01*
X0026924Y0014785D01*
X0033370Y0015853D02*
X0034437Y0014785D01*
X0037640Y0014785D01*
X0037640Y0013717D02*
X0036572Y0012650D01*
X0035505Y0012650D01*
X0037640Y0013717D02*
X0037640Y0019055D01*
X0039815Y0019055D02*
X0039815Y0017988D01*
X0040883Y0017988D01*
X0040883Y0019055D01*
X0039815Y0019055D01*
X0039815Y0015853D02*
X0039815Y0014785D01*
X0040883Y0014785D01*
X0040883Y0015853D01*
X0039815Y0015853D01*
X0033370Y0015853D02*
X0033370Y0019055D01*
X0045529Y0027664D02*
X0046597Y0026596D01*
X0048732Y0026596D01*
X0049799Y0027664D01*
X0049799Y0028731D01*
X0048732Y0029799D01*
X0046597Y0029799D01*
X0045529Y0030866D01*
X0045529Y0031934D01*
X0046597Y0033002D01*
X0048732Y0033002D01*
X0049799Y0031934D01*
X0051975Y0030866D02*
X0054110Y0030866D01*
X0053042Y0031934D02*
X0053042Y0027664D01*
X0054110Y0026596D01*
X0056272Y0027664D02*
X0057339Y0028731D01*
X0060542Y0028731D01*
X0060542Y0029799D02*
X0059474Y0030866D01*
X0057339Y0030866D01*
X0056272Y0027664D02*
X0057339Y0026596D01*
X0060542Y0026596D01*
X0060542Y0029799D01*
X0062717Y0030866D02*
X0064852Y0030866D01*
X0063785Y0031934D02*
X0063785Y0027664D01*
X0064852Y0026596D01*
X0067014Y0026596D02*
X0069149Y0026596D01*
X0068082Y0026596D02*
X0068082Y0030866D01*
X0067014Y0030866D01*
X0068082Y0033002D02*
X0068082Y0034069D01*
X0071311Y0029799D02*
X0071311Y0027664D01*
X0072379Y0026596D01*
X0074514Y0026596D01*
X0075581Y0027664D01*
X0075581Y0029799D01*
X0074514Y0030866D01*
X0072379Y0030866D01*
X0071311Y0029799D01*
X0077757Y0030866D02*
X0077757Y0026596D01*
X0082027Y0026596D02*
X0082027Y0029799D01*
X0080959Y0030866D01*
X0077757Y0030866D01*
X0079536Y0021191D02*
X0079536Y0014785D01*
X0075265Y0021191D01*
X0075265Y0014785D01*
X0073090Y0015853D02*
X0073090Y0016920D01*
X0072023Y0017988D01*
X0068820Y0017988D01*
X0068820Y0014785D02*
X0068820Y0021191D01*
X0072023Y0021191D01*
X0073090Y0020123D01*
X0073090Y0019055D01*
X0072023Y0017988D01*
X0073090Y0015853D02*
X0072023Y0014785D01*
X0068820Y0014785D01*
X0066645Y0014785D02*
X0063442Y0017988D01*
X0062374Y0016920D02*
X0066645Y0021191D01*
X0062374Y0021191D02*
X0062374Y0014785D01*
X0060199Y0014785D02*
X0055929Y0014785D01*
X0055929Y0021191D01*
X0053754Y0020123D02*
X0053754Y0019055D01*
X0052686Y0017988D01*
X0049483Y0017988D01*
X0049483Y0014785D02*
X0049483Y0021191D01*
X0052686Y0021191D01*
X0053754Y0020123D01*
X0052686Y0017988D02*
X0053754Y0016920D01*
X0053754Y0015853D01*
X0052686Y0014785D01*
X0049483Y0014785D01*
X0081711Y0020123D02*
X0083846Y0017988D01*
X0083846Y0014785D01*
X0083846Y0017988D02*
X0085981Y0020123D01*
X0085981Y0021191D01*
X0081711Y0021191D02*
X0081711Y0020123D01*
X0090648Y0028731D02*
X0092783Y0026596D01*
X0094918Y0028731D01*
X0094918Y0033002D01*
X0097093Y0031934D02*
X0098161Y0033002D01*
X0100296Y0033002D01*
X0101363Y0031934D01*
X0101363Y0030866D01*
X0097093Y0026596D01*
X0101363Y0026596D01*
X0103539Y0026596D02*
X0103539Y0027664D01*
X0104606Y0027664D01*
X0104606Y0026596D01*
X0103539Y0026596D01*
X0106761Y0027664D02*
X0107829Y0026596D01*
X0109964Y0026596D01*
X0111032Y0027664D01*
X0111032Y0031934D01*
X0106761Y0027664D01*
X0106761Y0031934D01*
X0107829Y0033002D01*
X0109964Y0033002D01*
X0111032Y0031934D01*
X0090648Y0033002D02*
X0090648Y0028731D01*
D11*
X0103880Y0112863D03*
X0103880Y0123887D03*
D12*
X0158211Y0176524D03*
X0146400Y0195028D03*
D13*
X0134589Y0176524D03*
D14*
X0145415Y0114713D03*
X0145415Y0108020D03*
X0137384Y0084871D03*
X0137384Y0078178D03*
X0105888Y0092351D03*
X0105888Y0099044D03*
D15*
X0112069Y0080540D03*
X0118762Y0080540D03*
X0118762Y0066761D03*
X0112069Y0066761D03*
X0119943Y0131721D03*
X0126636Y0131721D03*
X0079392Y0163217D03*
X0072699Y0163217D03*
D16*
X0067817Y0178131D02*
X0067817Y0184131D01*
X0057817Y0184131D02*
X0057817Y0178131D01*
X0047817Y0178131D02*
X0047817Y0184131D01*
X0077817Y0184131D02*
X0077817Y0178131D01*
X0087817Y0178131D02*
X0087817Y0184131D01*
X0097817Y0184131D02*
X0097817Y0178131D01*
X0107817Y0178131D02*
X0107817Y0184131D01*
X0117817Y0184131D02*
X0117817Y0178131D01*
X0097305Y0059328D02*
X0097305Y0053328D01*
X0087305Y0053328D02*
X0087305Y0059328D01*
X0077305Y0059328D02*
X0077305Y0053328D01*
D17*
X0054431Y0086091D03*
D18*
X0054431Y0076091D03*
X0064431Y0076091D03*
X0074431Y0076091D03*
X0074431Y0086091D03*
X0064431Y0086091D03*
D19*
X0118703Y0097942D03*
X0123703Y0097942D03*
X0128703Y0097942D03*
X0133703Y0097942D03*
X0147679Y0098178D03*
X0152679Y0098178D03*
X0157679Y0098178D03*
X0162679Y0098178D03*
X0162679Y0079753D03*
X0157679Y0079753D03*
X0152679Y0079753D03*
X0147679Y0079753D03*
X0133703Y0116367D03*
X0128703Y0116367D03*
X0123703Y0116367D03*
X0118703Y0116367D03*
D20*
X0092286Y0109733D03*
X0087286Y0109733D03*
X0082286Y0109733D03*
X0077286Y0109733D03*
X0072286Y0109733D03*
X0067286Y0109733D03*
X0062286Y0109733D03*
X0057286Y0109733D03*
X0052286Y0109733D03*
X0047286Y0109733D03*
X0047286Y0144733D03*
X0052286Y0144733D03*
X0057286Y0144733D03*
X0062286Y0144733D03*
X0067286Y0144733D03*
X0072286Y0144733D03*
X0077286Y0144733D03*
X0082286Y0144733D03*
X0087286Y0144733D03*
X0092286Y0144733D03*
D21*
X0094156Y0161741D03*
X0094156Y0169024D03*
X0103211Y0169024D03*
X0103211Y0161741D03*
D22*
X0151266Y0149123D02*
X0157203Y0149123D01*
X0157203Y0139123D02*
X0151266Y0139123D01*
D23*
X0129943Y0067076D03*
X0128762Y0037154D03*
X0146478Y0023375D03*
D24*
X0156321Y0048572D03*
X0166164Y0056052D03*
D25*
X0137384Y0084871D02*
X0136990Y0085265D01*
X0130770Y0085265D01*
X0124077Y0091957D01*
X0124077Y0098709D01*
X0123703Y0097942D01*
X0124077Y0098709D02*
X0124077Y0106524D01*
X0126439Y0108493D01*
X0139825Y0108493D01*
X0140612Y0108099D01*
X0144549Y0108099D01*
X0145415Y0108020D01*
X0145415Y0114713D02*
X0140140Y0114713D01*
X0137069Y0111249D01*
X0131164Y0111249D01*
X0128801Y0114005D01*
X0128801Y0116662D01*
X0128703Y0116367D01*
X0128703Y0129654D01*
X0126636Y0131721D01*
X0119943Y0131721D02*
X0111715Y0131721D01*
X0103880Y0123887D01*
X0103447Y0123454D01*
X0101636Y0123454D01*
X0101242Y0123847D01*
X0098880Y0123847D01*
X0096518Y0121485D01*
X0092581Y0121485D01*
X0087463Y0123454D02*
X0098486Y0134477D01*
X0098486Y0139595D01*
X0098112Y0144733D02*
X0113053Y0159674D01*
X0113053Y0175894D01*
X0107817Y0181131D01*
X0097817Y0181131D02*
X0097305Y0179556D01*
X0079392Y0163217D01*
X0072699Y0163217D02*
X0064234Y0163217D01*
X0047817Y0179635D01*
X0047817Y0181131D01*
X0047305Y0154950D02*
X0044156Y0151800D01*
X0044156Y0149831D01*
X0047286Y0146702D01*
X0047286Y0144733D01*
X0043782Y0144733D01*
X0037856Y0138808D01*
X0037856Y0120698D01*
X0033919Y0116761D01*
X0033919Y0081721D01*
X0049667Y0065973D01*
X0059510Y0065973D01*
X0061478Y0067942D01*
X0061478Y0073139D01*
X0064431Y0076091D01*
X0068565Y0081328D02*
X0091006Y0081328D01*
X0096912Y0087627D01*
X0096912Y0080540D02*
X0094943Y0078572D01*
X0094549Y0078572D01*
X0092975Y0076997D01*
X0087463Y0076997D01*
X0077620Y0067154D01*
X0068565Y0081328D02*
X0064431Y0085855D01*
X0064431Y0086091D01*
X0074431Y0086091D02*
X0074471Y0086052D01*
X0085494Y0086052D01*
X0098486Y0099044D01*
X0105888Y0099044D01*
X0105888Y0092351D02*
X0108723Y0092351D01*
X0113053Y0096682D01*
X0113053Y0102587D01*
X0123703Y0113237D01*
X0123703Y0116367D01*
X0123683Y0116780D01*
X0123683Y0123847D01*
X0128408Y0104556D02*
X0128703Y0103670D01*
X0128703Y0097942D01*
X0133703Y0097942D02*
X0133703Y0103985D01*
X0133919Y0104556D01*
X0118762Y0080540D02*
X0118762Y0077587D01*
X0114825Y0073650D01*
X0116203Y0072272D01*
X0118171Y0072272D01*
X0120140Y0074241D01*
X0126439Y0074241D01*
X0118762Y0066761D02*
X0118762Y0061052D01*
X0118565Y0060855D01*
X0113644Y0061643D02*
X0118762Y0066761D01*
X0112069Y0066761D02*
X0111872Y0066957D01*
X0111872Y0070698D01*
X0114825Y0073650D01*
X0112069Y0080540D02*
X0096912Y0080540D01*
X0094943Y0078572D02*
X0094943Y0069910D01*
X0097305Y0067548D01*
X0097305Y0056328D01*
X0107541Y0061643D02*
X0101636Y0067548D01*
X0101636Y0075028D01*
X0112069Y0080540D02*
X0105888Y0086721D01*
X0105888Y0092351D01*
X0103604Y0105343D02*
X0103880Y0105619D01*
X0103880Y0112863D01*
X0095415Y0112863D01*
X0092286Y0109733D01*
X0087286Y0109733D02*
X0087286Y0116544D01*
X0085888Y0117942D01*
X0079589Y0122272D02*
X0074864Y0122272D01*
X0070140Y0123847D02*
X0076045Y0129753D01*
X0081164Y0129753D01*
X0082345Y0130934D01*
X0082345Y0144674D01*
X0082286Y0144733D01*
X0082345Y0144792D01*
X0082345Y0155343D01*
X0088742Y0161741D01*
X0094156Y0161741D01*
X0091400Y0156918D02*
X0087069Y0152587D01*
X0087069Y0144950D01*
X0087286Y0144733D01*
X0087069Y0144517D01*
X0087069Y0129753D01*
X0079589Y0122272D01*
X0070140Y0123847D02*
X0066597Y0123847D01*
X0058329Y0123060D02*
X0067286Y0114103D01*
X0067286Y0109733D01*
X0067286Y0104261D01*
X0079195Y0092351D01*
X0082345Y0097469D02*
X0082286Y0097528D01*
X0082286Y0109733D01*
X0074471Y0102194D02*
X0072286Y0104379D01*
X0072286Y0109733D01*
X0057286Y0109733D02*
X0057148Y0109595D01*
X0057148Y0099438D01*
X0042581Y0084871D01*
X0042581Y0082115D01*
X0046912Y0099044D02*
X0037069Y0108887D01*
X0037069Y0114792D01*
X0045337Y0123060D01*
X0045337Y0137627D01*
X0052286Y0144733D02*
X0052286Y0123709D01*
X0041400Y0112824D01*
X0066990Y0140383D02*
X0066990Y0144438D01*
X0067286Y0144733D01*
X0066990Y0140383D02*
X0069746Y0137627D01*
X0069746Y0137233D01*
X0077286Y0144733D02*
X0077227Y0144792D01*
X0077227Y0152194D01*
X0068565Y0154950D02*
X0047305Y0154950D01*
X0091400Y0156918D02*
X0105573Y0156918D01*
X0109510Y0160855D01*
X0109510Y0166367D01*
X0106459Y0169024D01*
X0103211Y0169024D01*
X0098112Y0144733D02*
X0092286Y0144733D01*
X0110671Y0144733D01*
X0112660Y0142745D01*
X0113644Y0061643D02*
X0107541Y0061643D01*
D26*
X0118565Y0060855D03*
X0126439Y0074241D03*
X0147699Y0089595D03*
X0133919Y0104556D03*
X0128408Y0104556D03*
X0123683Y0123847D03*
X0112660Y0142745D03*
X0098486Y0139595D03*
X0087463Y0123454D03*
X0092581Y0121485D03*
X0085888Y0117942D03*
X0074864Y0122272D03*
X0066597Y0123847D03*
X0058329Y0123060D03*
X0069746Y0137233D03*
X0077227Y0152194D03*
X0068565Y0154950D03*
X0045337Y0137627D03*
X0041400Y0112824D03*
X0046912Y0099044D03*
X0042581Y0082115D03*
X0074471Y0102194D03*
X0082345Y0097469D03*
X0079195Y0092351D03*
X0096912Y0087627D03*
X0101636Y0075028D03*
X0077620Y0067154D03*
X0103604Y0105343D03*
X0157541Y0107706D03*
D27*
X0157679Y0107568D01*
X0157679Y0098178D01*
X0162679Y0098178D01*
X0157679Y0098178D02*
X0152679Y0098178D01*
X0152679Y0079753D02*
X0147679Y0079753D01*
X0152679Y0079753D02*
X0157679Y0079753D01*
X0162679Y0079753D01*
X0162679Y0059536D01*
X0166164Y0056052D01*
D28*
X0147699Y0089595D02*
X0147679Y0098178D01*
M02*
