G75*
%MOIN*%
%OFA0B0*%
%FSLAX25Y25*%
%IPPOS*%
%LPD*%
%AMOC8*
5,1,8,0,0,1.08239X$1,22.5*
%
%ADD10C,0.00000*%
%ADD11C,0.00400*%
%ADD12C,0.00500*%
%ADD13C,0.00600*%
%ADD14C,0.01000*%
D10*
X0028801Y0005737D02*
X0028801Y0206524D01*
X0176833Y0206131D01*
X0176833Y0005343D01*
X0028801Y0005737D01*
D11*
X0104304Y0059461D02*
X0104304Y0064065D01*
X0106606Y0064065D01*
X0107373Y0063297D01*
X0107373Y0061763D01*
X0106606Y0060995D01*
X0104304Y0060995D01*
X0105838Y0060995D02*
X0107373Y0059461D01*
X0108908Y0059461D02*
X0111977Y0059461D01*
X0110442Y0059461D02*
X0110442Y0064065D01*
X0108908Y0062530D01*
X0113512Y0063297D02*
X0114279Y0064065D01*
X0115813Y0064065D01*
X0116581Y0063297D01*
X0116581Y0062530D01*
X0115813Y0061763D01*
X0116581Y0060995D01*
X0116581Y0060228D01*
X0115813Y0059461D01*
X0114279Y0059461D01*
X0113512Y0060228D01*
X0115046Y0061763D02*
X0115813Y0061763D01*
X0130080Y0079224D02*
X0130080Y0081526D01*
X0130847Y0082294D01*
X0132382Y0082294D01*
X0133149Y0081526D01*
X0133149Y0079224D01*
X0134684Y0079224D02*
X0130080Y0079224D01*
X0133149Y0080759D02*
X0134684Y0082294D01*
X0134684Y0083828D02*
X0134684Y0086898D01*
X0134684Y0085363D02*
X0130080Y0085363D01*
X0131615Y0083828D01*
X0130847Y0088432D02*
X0130080Y0089200D01*
X0130080Y0090734D01*
X0130847Y0091502D01*
X0133917Y0088432D01*
X0134684Y0089200D01*
X0134684Y0090734D01*
X0133917Y0091502D01*
X0130847Y0091502D01*
X0130847Y0088432D02*
X0133917Y0088432D01*
X0125393Y0087077D02*
X0124625Y0087844D01*
X0123091Y0087844D01*
X0122323Y0087077D01*
X0119254Y0087844D02*
X0119254Y0083240D01*
X0117719Y0083240D02*
X0120789Y0083240D01*
X0122323Y0083240D02*
X0125393Y0086309D01*
X0125393Y0087077D01*
X0125393Y0083240D02*
X0122323Y0083240D01*
X0117719Y0086309D02*
X0119254Y0087844D01*
X0116185Y0087077D02*
X0116185Y0085542D01*
X0115417Y0084775D01*
X0113115Y0084775D01*
X0113115Y0083240D02*
X0113115Y0087844D01*
X0115417Y0087844D01*
X0116185Y0087077D01*
X0114650Y0084775D02*
X0116185Y0083240D01*
X0103188Y0093398D02*
X0098584Y0093398D01*
X0098584Y0095700D01*
X0099351Y0096467D01*
X0100886Y0096467D01*
X0101653Y0095700D01*
X0101653Y0093398D01*
X0101653Y0094932D02*
X0103188Y0096467D01*
X0103188Y0098002D02*
X0103188Y0101071D01*
X0103188Y0099536D02*
X0098584Y0099536D01*
X0100119Y0098002D01*
X0100886Y0102605D02*
X0100119Y0104140D01*
X0100119Y0104907D01*
X0100886Y0105675D01*
X0102421Y0105675D01*
X0103188Y0104907D01*
X0103188Y0103373D01*
X0102421Y0102605D01*
X0100886Y0102605D02*
X0098584Y0102605D01*
X0098584Y0105675D01*
X0109076Y0115134D02*
X0109843Y0114367D01*
X0112913Y0114367D01*
X0113680Y0115134D01*
X0113680Y0116669D01*
X0112913Y0117436D01*
X0112913Y0118971D02*
X0113680Y0118971D01*
X0112913Y0118971D02*
X0109843Y0122040D01*
X0109076Y0122040D01*
X0109076Y0118971D01*
X0109843Y0117436D02*
X0109076Y0116669D01*
X0109076Y0115134D01*
X0116403Y0123122D02*
X0117170Y0122354D01*
X0118705Y0122354D01*
X0119472Y0123122D01*
X0119472Y0126958D01*
X0121007Y0126191D02*
X0121774Y0126958D01*
X0123309Y0126958D01*
X0124076Y0126191D01*
X0123309Y0124656D02*
X0121774Y0124656D01*
X0121007Y0125424D01*
X0121007Y0126191D01*
X0122541Y0127726D02*
X0122541Y0121587D01*
X0121774Y0122354D02*
X0123309Y0122354D01*
X0124076Y0123122D01*
X0124076Y0123889D01*
X0123309Y0124656D01*
X0125611Y0124656D02*
X0128680Y0124656D01*
X0127913Y0122354D02*
X0127913Y0126958D01*
X0125611Y0124656D01*
X0121774Y0122354D02*
X0121007Y0123122D01*
X0116403Y0123122D02*
X0116403Y0126958D01*
X0120989Y0134421D02*
X0120989Y0139025D01*
X0123291Y0139025D01*
X0124059Y0138258D01*
X0124059Y0136723D01*
X0123291Y0135956D01*
X0120989Y0135956D01*
X0122524Y0135956D02*
X0124059Y0134421D01*
X0125593Y0134421D02*
X0128663Y0134421D01*
X0127128Y0134421D02*
X0127128Y0139025D01*
X0125593Y0137491D01*
X0130197Y0136723D02*
X0133267Y0136723D01*
X0132499Y0134421D02*
X0132499Y0139025D01*
X0130197Y0136723D01*
X0109160Y0153476D02*
X0109160Y0154243D01*
X0108392Y0155011D01*
X0106090Y0155011D01*
X0106090Y0153476D01*
X0106858Y0152709D01*
X0108392Y0152709D01*
X0109160Y0153476D01*
X0107625Y0156545D02*
X0106090Y0155011D01*
X0104556Y0154243D02*
X0104556Y0153476D01*
X0103788Y0152709D01*
X0102254Y0152709D01*
X0101486Y0153476D01*
X0099952Y0153476D02*
X0099952Y0157313D01*
X0101486Y0156545D02*
X0101486Y0155778D01*
X0102254Y0155011D01*
X0103788Y0155011D01*
X0104556Y0154243D01*
X0104556Y0156545D02*
X0103788Y0157313D01*
X0102254Y0157313D01*
X0101486Y0156545D01*
X0103021Y0158080D02*
X0103021Y0151941D01*
X0099952Y0153476D02*
X0099184Y0152709D01*
X0097650Y0152709D01*
X0096882Y0153476D01*
X0096882Y0157313D01*
X0107625Y0156545D02*
X0109160Y0157313D01*
X0081419Y0165917D02*
X0078349Y0165917D01*
X0081419Y0168987D01*
X0081419Y0169754D01*
X0080651Y0170521D01*
X0079117Y0170521D01*
X0078349Y0169754D01*
X0076815Y0169754D02*
X0076815Y0168219D01*
X0076047Y0167452D01*
X0073745Y0167452D01*
X0073745Y0165917D02*
X0073745Y0170521D01*
X0076047Y0170521D01*
X0076815Y0169754D01*
X0075280Y0167452D02*
X0076815Y0165917D01*
X0148112Y0110998D02*
X0152715Y0110998D01*
X0152715Y0112532D02*
X0152715Y0109463D01*
X0152715Y0107928D02*
X0152715Y0104859D01*
X0152715Y0103324D02*
X0151181Y0101790D01*
X0151181Y0102557D02*
X0151181Y0100255D01*
X0152715Y0100255D02*
X0148112Y0100255D01*
X0148112Y0102557D01*
X0148879Y0103324D01*
X0150414Y0103324D01*
X0151181Y0102557D01*
X0149646Y0104859D02*
X0148112Y0106394D01*
X0152715Y0106394D01*
X0149646Y0109463D02*
X0148112Y0110998D01*
X0169431Y0146957D02*
X0173034Y0149359D01*
X0173034Y0150640D02*
X0173034Y0153042D01*
X0173034Y0151841D02*
X0169431Y0151841D01*
X0170632Y0150640D01*
X0169431Y0149359D02*
X0173034Y0146957D01*
X0170656Y0148102D02*
X0167586Y0148102D01*
X0169121Y0148102D02*
X0169121Y0152706D01*
X0167586Y0151172D01*
X0166052Y0152706D02*
X0164517Y0152706D01*
X0165284Y0152706D02*
X0165284Y0148870D01*
X0164517Y0148102D01*
X0163750Y0148102D01*
X0162982Y0148870D01*
X0157706Y0074537D02*
X0157706Y0068398D01*
X0156939Y0069165D02*
X0158473Y0069165D01*
X0159241Y0069933D01*
X0159241Y0070700D01*
X0158473Y0071467D01*
X0156939Y0071467D01*
X0156171Y0072235D01*
X0156171Y0073002D01*
X0156939Y0073769D01*
X0158473Y0073769D01*
X0159241Y0073002D01*
X0160775Y0072235D02*
X0162310Y0073769D01*
X0162310Y0069165D01*
X0160775Y0069165D02*
X0163845Y0069165D01*
X0156939Y0069165D02*
X0156171Y0069933D01*
X0154637Y0069933D02*
X0154637Y0073769D01*
X0151567Y0073769D02*
X0151567Y0069933D01*
X0152335Y0069165D01*
X0153869Y0069165D01*
X0154637Y0069933D01*
D12*
X0145337Y0081091D02*
X0165022Y0081091D01*
X0165022Y0096839D01*
X0145337Y0096839D01*
X0145337Y0081091D01*
X0136045Y0099280D02*
X0136045Y0115028D01*
X0116360Y0115028D01*
X0116360Y0099280D01*
X0136045Y0099280D01*
X0117345Y0103217D02*
X0117347Y0103279D01*
X0117353Y0103342D01*
X0117363Y0103403D01*
X0117377Y0103464D01*
X0117394Y0103524D01*
X0117415Y0103583D01*
X0117441Y0103640D01*
X0117469Y0103695D01*
X0117501Y0103749D01*
X0117537Y0103800D01*
X0117575Y0103850D01*
X0117617Y0103896D01*
X0117661Y0103940D01*
X0117709Y0103981D01*
X0117758Y0104019D01*
X0117810Y0104053D01*
X0117864Y0104084D01*
X0117920Y0104112D01*
X0117978Y0104136D01*
X0118037Y0104157D01*
X0118097Y0104173D01*
X0118158Y0104186D01*
X0118220Y0104195D01*
X0118282Y0104200D01*
X0118345Y0104201D01*
X0118407Y0104198D01*
X0118469Y0104191D01*
X0118531Y0104180D01*
X0118591Y0104165D01*
X0118651Y0104147D01*
X0118709Y0104125D01*
X0118766Y0104099D01*
X0118821Y0104069D01*
X0118874Y0104036D01*
X0118925Y0104000D01*
X0118973Y0103961D01*
X0119019Y0103918D01*
X0119062Y0103873D01*
X0119102Y0103825D01*
X0119139Y0103775D01*
X0119173Y0103722D01*
X0119204Y0103668D01*
X0119230Y0103612D01*
X0119254Y0103554D01*
X0119273Y0103494D01*
X0119289Y0103434D01*
X0119301Y0103372D01*
X0119309Y0103311D01*
X0119313Y0103248D01*
X0119313Y0103186D01*
X0119309Y0103123D01*
X0119301Y0103062D01*
X0119289Y0103000D01*
X0119273Y0102940D01*
X0119254Y0102880D01*
X0119230Y0102822D01*
X0119204Y0102766D01*
X0119173Y0102712D01*
X0119139Y0102659D01*
X0119102Y0102609D01*
X0119062Y0102561D01*
X0119019Y0102516D01*
X0118973Y0102473D01*
X0118925Y0102434D01*
X0118874Y0102398D01*
X0118821Y0102365D01*
X0118766Y0102335D01*
X0118709Y0102309D01*
X0118651Y0102287D01*
X0118591Y0102269D01*
X0118531Y0102254D01*
X0118469Y0102243D01*
X0118407Y0102236D01*
X0118345Y0102233D01*
X0118282Y0102234D01*
X0118220Y0102239D01*
X0118158Y0102248D01*
X0118097Y0102261D01*
X0118037Y0102277D01*
X0117978Y0102298D01*
X0117920Y0102322D01*
X0117864Y0102350D01*
X0117810Y0102381D01*
X0117758Y0102415D01*
X0117709Y0102453D01*
X0117661Y0102494D01*
X0117617Y0102538D01*
X0117575Y0102584D01*
X0117537Y0102634D01*
X0117501Y0102685D01*
X0117469Y0102739D01*
X0117441Y0102794D01*
X0117415Y0102851D01*
X0117394Y0102910D01*
X0117377Y0102970D01*
X0117363Y0103031D01*
X0117353Y0103092D01*
X0117347Y0103155D01*
X0117345Y0103217D01*
X0104453Y0058581D02*
X0104453Y0054078D01*
X0105954Y0054078D02*
X0102951Y0054078D01*
X0102951Y0057080D02*
X0104453Y0058581D01*
X0100203Y0049581D02*
X0098702Y0049581D01*
X0097951Y0048831D01*
X0096350Y0049581D02*
X0096350Y0046579D01*
X0094849Y0045078D01*
X0093347Y0046579D01*
X0093347Y0049581D01*
X0091746Y0048831D02*
X0090995Y0049581D01*
X0089494Y0049581D01*
X0088743Y0048831D01*
X0088743Y0048080D01*
X0089494Y0047329D01*
X0090995Y0047329D01*
X0091746Y0046579D01*
X0091746Y0045828D01*
X0090995Y0045078D01*
X0089494Y0045078D01*
X0088743Y0045828D01*
X0097951Y0045078D02*
X0100954Y0048080D01*
X0100954Y0048831D01*
X0100203Y0049581D01*
X0100954Y0045078D02*
X0097951Y0045078D01*
X0041285Y0112483D02*
X0037532Y0112483D01*
X0037532Y0115486D02*
X0041285Y0115486D01*
X0042036Y0114735D01*
X0042036Y0113234D01*
X0041285Y0112483D01*
X0041285Y0117087D02*
X0042036Y0117838D01*
X0042036Y0119339D01*
X0041285Y0120090D01*
X0040534Y0120090D01*
X0039784Y0119339D01*
X0039784Y0117838D01*
X0039033Y0117087D01*
X0038282Y0117087D01*
X0037532Y0117838D01*
X0037532Y0119339D01*
X0038282Y0120090D01*
X0037532Y0121691D02*
X0039784Y0121691D01*
X0039033Y0123192D01*
X0039033Y0123943D01*
X0039784Y0124693D01*
X0041285Y0124693D01*
X0042036Y0123943D01*
X0042036Y0122442D01*
X0041285Y0121691D01*
X0042786Y0118588D02*
X0036781Y0118588D01*
X0037532Y0121691D02*
X0037532Y0124693D01*
X0046714Y0169881D02*
X0045963Y0170631D01*
X0045963Y0171382D01*
X0046714Y0172133D01*
X0048215Y0172133D01*
X0048966Y0171382D01*
X0048966Y0170631D01*
X0048215Y0169881D01*
X0046714Y0169881D01*
X0046714Y0172133D02*
X0045963Y0172883D01*
X0045963Y0173634D01*
X0046714Y0174385D01*
X0048215Y0174385D01*
X0048966Y0173634D01*
X0048966Y0172883D01*
X0048215Y0172133D01*
X0092384Y0170304D02*
X0092384Y0160461D01*
X0104982Y0160461D01*
X0104982Y0170304D01*
X0092384Y0170304D01*
X0109255Y0170631D02*
X0110006Y0169881D01*
X0111507Y0169881D01*
X0112258Y0170631D01*
X0112258Y0171382D01*
X0111507Y0172133D01*
X0110006Y0172133D01*
X0109255Y0172883D01*
X0109255Y0173634D01*
X0110006Y0174385D01*
X0111507Y0174385D01*
X0112258Y0173634D01*
X0113859Y0174385D02*
X0113859Y0171382D01*
X0115360Y0169881D01*
X0116862Y0171382D01*
X0116862Y0174385D01*
X0118463Y0172133D02*
X0120715Y0172133D01*
X0121466Y0171382D01*
X0121466Y0170631D01*
X0120715Y0169881D01*
X0119214Y0169881D01*
X0118463Y0170631D01*
X0118463Y0172133D01*
X0119964Y0173634D01*
X0121466Y0174385D01*
X0118466Y0187881D02*
X0115463Y0187881D01*
X0116964Y0187881D02*
X0116964Y0192385D01*
X0115463Y0190883D01*
X0132423Y0194241D02*
X0187935Y0194241D01*
X0187935Y0158808D01*
X0132423Y0158808D01*
X0132423Y0194241D01*
X0162069Y0092902D02*
X0162071Y0092964D01*
X0162077Y0093027D01*
X0162087Y0093088D01*
X0162101Y0093149D01*
X0162118Y0093209D01*
X0162139Y0093268D01*
X0162165Y0093325D01*
X0162193Y0093380D01*
X0162225Y0093434D01*
X0162261Y0093485D01*
X0162299Y0093535D01*
X0162341Y0093581D01*
X0162385Y0093625D01*
X0162433Y0093666D01*
X0162482Y0093704D01*
X0162534Y0093738D01*
X0162588Y0093769D01*
X0162644Y0093797D01*
X0162702Y0093821D01*
X0162761Y0093842D01*
X0162821Y0093858D01*
X0162882Y0093871D01*
X0162944Y0093880D01*
X0163006Y0093885D01*
X0163069Y0093886D01*
X0163131Y0093883D01*
X0163193Y0093876D01*
X0163255Y0093865D01*
X0163315Y0093850D01*
X0163375Y0093832D01*
X0163433Y0093810D01*
X0163490Y0093784D01*
X0163545Y0093754D01*
X0163598Y0093721D01*
X0163649Y0093685D01*
X0163697Y0093646D01*
X0163743Y0093603D01*
X0163786Y0093558D01*
X0163826Y0093510D01*
X0163863Y0093460D01*
X0163897Y0093407D01*
X0163928Y0093353D01*
X0163954Y0093297D01*
X0163978Y0093239D01*
X0163997Y0093179D01*
X0164013Y0093119D01*
X0164025Y0093057D01*
X0164033Y0092996D01*
X0164037Y0092933D01*
X0164037Y0092871D01*
X0164033Y0092808D01*
X0164025Y0092747D01*
X0164013Y0092685D01*
X0163997Y0092625D01*
X0163978Y0092565D01*
X0163954Y0092507D01*
X0163928Y0092451D01*
X0163897Y0092397D01*
X0163863Y0092344D01*
X0163826Y0092294D01*
X0163786Y0092246D01*
X0163743Y0092201D01*
X0163697Y0092158D01*
X0163649Y0092119D01*
X0163598Y0092083D01*
X0163545Y0092050D01*
X0163490Y0092020D01*
X0163433Y0091994D01*
X0163375Y0091972D01*
X0163315Y0091954D01*
X0163255Y0091939D01*
X0163193Y0091928D01*
X0163131Y0091921D01*
X0163069Y0091918D01*
X0163006Y0091919D01*
X0162944Y0091924D01*
X0162882Y0091933D01*
X0162821Y0091946D01*
X0162761Y0091962D01*
X0162702Y0091983D01*
X0162644Y0092007D01*
X0162588Y0092035D01*
X0162534Y0092066D01*
X0162482Y0092100D01*
X0162433Y0092138D01*
X0162385Y0092179D01*
X0162341Y0092223D01*
X0162299Y0092269D01*
X0162261Y0092319D01*
X0162225Y0092370D01*
X0162193Y0092424D01*
X0162165Y0092479D01*
X0162139Y0092536D01*
X0162118Y0092595D01*
X0162101Y0092655D01*
X0162087Y0092716D01*
X0162077Y0092777D01*
X0162071Y0092840D01*
X0162069Y0092902D01*
D13*
X0102305Y0058828D02*
X0102305Y0053828D01*
X0099805Y0051328D01*
X0094805Y0051328D01*
X0092305Y0053828D01*
X0089805Y0051328D01*
X0084805Y0051328D01*
X0082305Y0053828D01*
X0079805Y0051328D01*
X0074805Y0051328D01*
X0072305Y0053828D01*
X0072305Y0058828D01*
X0074805Y0061328D01*
X0079805Y0061328D01*
X0082305Y0058828D01*
X0084805Y0061328D01*
X0089805Y0061328D01*
X0092305Y0058828D01*
X0094805Y0061328D01*
X0099805Y0061328D01*
X0102305Y0058828D01*
X0095101Y0112469D02*
X0095101Y0141997D01*
X0095317Y0176131D02*
X0092817Y0178631D01*
X0090317Y0176131D01*
X0085317Y0176131D01*
X0082817Y0178631D01*
X0080317Y0176131D01*
X0075317Y0176131D01*
X0072817Y0178631D01*
X0070317Y0176131D01*
X0065317Y0176131D01*
X0062817Y0178631D01*
X0060317Y0176131D01*
X0055317Y0176131D01*
X0052817Y0178631D01*
X0050317Y0176131D01*
X0045317Y0176131D01*
X0042817Y0178631D01*
X0042817Y0183631D01*
X0045317Y0186131D01*
X0050317Y0186131D01*
X0052817Y0183631D01*
X0055317Y0186131D01*
X0060317Y0186131D01*
X0062817Y0183631D01*
X0065317Y0186131D01*
X0070317Y0186131D01*
X0072817Y0183631D01*
X0075317Y0186131D01*
X0080317Y0186131D01*
X0082817Y0183631D01*
X0085317Y0186131D01*
X0090317Y0186131D01*
X0092817Y0183631D01*
X0095317Y0186131D01*
X0100317Y0186131D01*
X0102817Y0183631D01*
X0105317Y0186131D01*
X0110317Y0186131D01*
X0112817Y0183631D01*
X0115317Y0186131D01*
X0120317Y0186131D01*
X0122817Y0183631D01*
X0122817Y0178631D01*
X0120317Y0176131D01*
X0115317Y0176131D01*
X0112817Y0178631D01*
X0110317Y0176131D01*
X0105317Y0176131D01*
X0102817Y0178631D01*
X0100317Y0176131D01*
X0095317Y0176131D01*
X0044471Y0141997D02*
X0044471Y0112469D01*
X0047362Y0119359D02*
X0047364Y0119453D01*
X0047370Y0119547D01*
X0047380Y0119640D01*
X0047394Y0119733D01*
X0047411Y0119825D01*
X0047433Y0119916D01*
X0047458Y0120007D01*
X0047488Y0120096D01*
X0047520Y0120184D01*
X0047557Y0120271D01*
X0047597Y0120355D01*
X0047641Y0120438D01*
X0047688Y0120520D01*
X0047739Y0120599D01*
X0047793Y0120676D01*
X0047850Y0120750D01*
X0047910Y0120822D01*
X0047973Y0120892D01*
X0048039Y0120958D01*
X0048108Y0121022D01*
X0048180Y0121083D01*
X0048254Y0121141D01*
X0048330Y0121196D01*
X0048408Y0121247D01*
X0048489Y0121295D01*
X0048572Y0121340D01*
X0048656Y0121381D01*
X0048742Y0121419D01*
X0048830Y0121453D01*
X0048919Y0121483D01*
X0049009Y0121509D01*
X0049100Y0121532D01*
X0049192Y0121550D01*
X0049285Y0121565D01*
X0049378Y0121576D01*
X0049472Y0121583D01*
X0049566Y0121586D01*
X0049659Y0121585D01*
X0049753Y0121580D01*
X0049847Y0121571D01*
X0049940Y0121558D01*
X0050032Y0121541D01*
X0050124Y0121521D01*
X0050214Y0121496D01*
X0050304Y0121468D01*
X0050392Y0121436D01*
X0050479Y0121400D01*
X0050564Y0121361D01*
X0050648Y0121318D01*
X0050729Y0121272D01*
X0050809Y0121222D01*
X0050887Y0121169D01*
X0050962Y0121113D01*
X0051034Y0121053D01*
X0051105Y0120991D01*
X0051172Y0120925D01*
X0051237Y0120857D01*
X0051298Y0120786D01*
X0051357Y0120713D01*
X0051413Y0120637D01*
X0051465Y0120559D01*
X0051514Y0120479D01*
X0051559Y0120397D01*
X0051601Y0120313D01*
X0051640Y0120227D01*
X0051674Y0120140D01*
X0051706Y0120052D01*
X0051733Y0119962D01*
X0051756Y0119871D01*
X0051776Y0119779D01*
X0051792Y0119686D01*
X0051804Y0119593D01*
X0051812Y0119500D01*
X0051816Y0119406D01*
X0051816Y0119312D01*
X0051812Y0119218D01*
X0051804Y0119125D01*
X0051792Y0119032D01*
X0051776Y0118939D01*
X0051756Y0118847D01*
X0051733Y0118756D01*
X0051706Y0118666D01*
X0051674Y0118578D01*
X0051640Y0118491D01*
X0051601Y0118405D01*
X0051559Y0118321D01*
X0051514Y0118239D01*
X0051465Y0118159D01*
X0051413Y0118081D01*
X0051357Y0118005D01*
X0051298Y0117932D01*
X0051237Y0117861D01*
X0051172Y0117793D01*
X0051105Y0117727D01*
X0051034Y0117665D01*
X0050962Y0117605D01*
X0050887Y0117549D01*
X0050809Y0117496D01*
X0050729Y0117446D01*
X0050648Y0117400D01*
X0050564Y0117357D01*
X0050479Y0117318D01*
X0050392Y0117282D01*
X0050304Y0117250D01*
X0050214Y0117222D01*
X0050124Y0117197D01*
X0050032Y0117177D01*
X0049940Y0117160D01*
X0049847Y0117147D01*
X0049753Y0117138D01*
X0049659Y0117133D01*
X0049566Y0117132D01*
X0049472Y0117135D01*
X0049378Y0117142D01*
X0049285Y0117153D01*
X0049192Y0117168D01*
X0049100Y0117186D01*
X0049009Y0117209D01*
X0048919Y0117235D01*
X0048830Y0117265D01*
X0048742Y0117299D01*
X0048656Y0117337D01*
X0048572Y0117378D01*
X0048489Y0117423D01*
X0048408Y0117471D01*
X0048330Y0117522D01*
X0048254Y0117577D01*
X0048180Y0117635D01*
X0048108Y0117696D01*
X0048039Y0117760D01*
X0047973Y0117826D01*
X0047910Y0117896D01*
X0047850Y0117968D01*
X0047793Y0118042D01*
X0047739Y0118119D01*
X0047688Y0118198D01*
X0047641Y0118280D01*
X0047597Y0118363D01*
X0047557Y0118447D01*
X0047520Y0118534D01*
X0047488Y0118622D01*
X0047458Y0118711D01*
X0047433Y0118802D01*
X0047411Y0118893D01*
X0047394Y0118985D01*
X0047380Y0119078D01*
X0047370Y0119171D01*
X0047364Y0119265D01*
X0047362Y0119359D01*
D14*
X0141734Y0134123D02*
X0141734Y0154123D01*
X0159234Y0154123D01*
X0159234Y0134123D01*
X0141734Y0134123D01*
X0159234Y0134123D02*
X0166734Y0134123D01*
X0166734Y0154123D01*
X0159234Y0154123D01*
M02*
