%
M48
M72
T01C0.02362
T02C0.03937
T03C0.04000
T04C0.05900
T05C0.05906
T06C0.06890
%
T01
X42581Y82115
X46912Y99044
X41400Y112824
X58329Y123060
X66597Y123847
X74864Y122272
X85888Y117942
X87463Y123454
X92581Y121485
X103604Y105343
X96912Y87627
X101636Y75028
X118565Y60855
X126439Y74241
X147699Y89595
X133919Y104556
X128408Y104556
X123683Y123847
X112660Y142745
X98486Y139595
X77227Y152194
X68565Y154950
X69746Y137233
X45337Y137627
X74471Y102194
X82345Y97469
X79195Y92351
X77620Y67154
X157541Y107706
T02
X154234Y139123
X154234Y149123
T03
X54431Y76091
X54431Y86091
X64431Y86091
X64431Y76091
X74431Y76091
X74431Y86091
X77305Y56328
X87305Y56328
X97305Y56328
X97817Y181131
X87817Y181131
X77817Y181131
X67817Y181131
X57817Y181131
X47817Y181131
X107817Y181131
X117817Y181131
T04
X129943Y67076
X156321Y48572
X166164Y56052
X146478Y23375
X128762Y37154
T05
X158211Y176524
X146400Y195028
T06
X134589Y176524
M30
