G75*
%MOIN*%
%OFA0B0*%
%FSLAX25Y25*%
%IPPOS*%
%LPD*%
%AMOC8*
5,1,8,0,0,1.08239X$1,22.5*
%
%ADD10R,0.06299X0.07087*%
%ADD11R,0.07087X0.06299*%
%ADD12C,0.08858*%
%ADD13C,0.10335*%
%ADD14R,0.03937X0.04331*%
%ADD15R,0.04331X0.03937*%
%ADD16C,0.06000*%
%ADD17C,0.06000*%
%ADD18OC8,0.06000*%
%ADD19R,0.05512X0.02244*%
%ADD20C,0.00500*%
%ADD21R,0.05000X0.02500*%
%ADD22R,0.05512X0.03937*%
%ADD23C,0.05937*%
%ADD24OC8,0.08850*%
%ADD25C,0.08850*%
%ADD26OC8,0.03962*%
%ADD27C,0.01600*%
%ADD28C,0.05600*%
%ADD29C,0.05000*%
%ADD30C,0.02400*%
D10*
X0077463Y0130068D03*
X0088486Y0130068D03*
X0102030Y0131721D03*
X0113053Y0131721D03*
X0153211Y0123847D03*
X0164234Y0123847D03*
X0062817Y0131997D03*
X0051793Y0131997D03*
D11*
X0111478Y0121485D03*
X0111478Y0110461D03*
X0123289Y0130146D03*
X0123289Y0141170D03*
X0135376Y0140776D03*
X0135376Y0129753D03*
X0115140Y0052391D03*
X0115140Y0041367D03*
D12*
X0158211Y0176524D03*
X0146400Y0195028D03*
D13*
X0134589Y0176524D03*
D14*
X0118762Y0072666D03*
X0112069Y0072666D03*
X0097896Y0040265D03*
X0091203Y0040265D03*
D15*
X0119352Y0081131D03*
X0119352Y0087824D03*
X0139943Y0089713D03*
X0139943Y0096406D03*
X0091793Y0159871D03*
X0091793Y0166564D03*
X0079982Y0166564D03*
X0079982Y0159871D03*
X0068171Y0159871D03*
X0068171Y0166564D03*
X0056360Y0166564D03*
X0056360Y0159871D03*
D16*
X0057817Y0178131D02*
X0057817Y0184131D01*
X0047817Y0184131D02*
X0047817Y0178131D01*
X0067817Y0178131D02*
X0067817Y0184131D01*
X0077817Y0184131D02*
X0077817Y0178131D01*
X0087817Y0178131D02*
X0087817Y0184131D01*
X0097817Y0184131D02*
X0097817Y0178131D01*
X0107817Y0178131D02*
X0107817Y0184131D01*
X0117817Y0184131D02*
X0117817Y0178131D01*
X0097305Y0059328D02*
X0097305Y0053328D01*
X0087305Y0053328D02*
X0087305Y0059328D01*
X0077305Y0059328D02*
X0077305Y0053328D01*
D17*
X0054431Y0086091D03*
D18*
X0054431Y0076091D03*
X0064431Y0076091D03*
X0074431Y0076091D03*
X0074431Y0086091D03*
X0064431Y0086091D03*
D19*
X0139766Y0106209D03*
X0139766Y0118020D03*
D20*
X0136413Y0114680D02*
X0125396Y0114680D01*
X0125396Y0114182D02*
X0136912Y0114182D01*
X0137410Y0113683D02*
X0125396Y0113683D01*
X0125396Y0113185D02*
X0142522Y0113185D01*
X0142522Y0113394D02*
X0137699Y0113394D01*
X0135041Y0116052D01*
X0125396Y0116052D01*
X0125396Y0108178D01*
X0135041Y0108178D01*
X0137699Y0110835D01*
X0142522Y0110835D01*
X0142522Y0113394D01*
X0142522Y0112686D02*
X0125396Y0112686D01*
X0125396Y0112188D02*
X0142522Y0112188D01*
X0142522Y0111689D02*
X0125396Y0111689D01*
X0125396Y0111191D02*
X0142522Y0111191D01*
X0137556Y0110692D02*
X0125396Y0110692D01*
X0125396Y0110194D02*
X0137057Y0110194D01*
X0136559Y0109695D02*
X0125396Y0109695D01*
X0125396Y0109197D02*
X0136060Y0109197D01*
X0135562Y0108698D02*
X0125396Y0108698D01*
X0125396Y0108200D02*
X0135063Y0108200D01*
X0135915Y0115179D02*
X0125396Y0115179D01*
X0125396Y0115677D02*
X0135416Y0115677D01*
D21*
X0133959Y0112115D03*
D22*
X0127975Y0086761D03*
X0127975Y0079280D03*
X0136636Y0083020D03*
D23*
X0151266Y0139123D02*
X0157203Y0139123D01*
X0157203Y0149123D02*
X0151266Y0149123D01*
D24*
X0129943Y0067076D03*
X0128762Y0037154D03*
X0146478Y0023375D03*
D25*
X0156321Y0048572D03*
X0166164Y0056052D03*
D26*
X0147699Y0089595D03*
X0133919Y0104556D03*
X0128408Y0104556D03*
X0123683Y0123847D03*
X0112660Y0142745D03*
X0098486Y0139595D03*
X0087463Y0123454D03*
X0092581Y0121485D03*
X0085888Y0117942D03*
X0074864Y0122272D03*
X0066597Y0123847D03*
X0058329Y0123060D03*
X0069746Y0137233D03*
X0077227Y0152194D03*
X0068565Y0154950D03*
X0045337Y0137627D03*
X0041400Y0112824D03*
X0046912Y0099044D03*
X0042581Y0082115D03*
X0074471Y0102194D03*
X0082345Y0097469D03*
X0079195Y0092351D03*
X0096912Y0087627D03*
X0101636Y0075028D03*
X0118565Y0060855D03*
X0126439Y0074241D03*
X0103604Y0105343D03*
X0077620Y0067154D03*
X0157541Y0107706D03*
D27*
X0033601Y0201712D02*
X0033601Y0010524D01*
X0172033Y0010156D01*
X0172033Y0054478D01*
X0171271Y0052639D01*
X0169576Y0050944D01*
X0167362Y0050027D01*
X0164965Y0050027D01*
X0162751Y0050944D01*
X0161056Y0052639D01*
X0160139Y0054854D01*
X0160139Y0057250D01*
X0161056Y0059465D01*
X0162751Y0061160D01*
X0164965Y0062077D01*
X0167362Y0062077D01*
X0169576Y0061160D01*
X0171271Y0059465D01*
X0172033Y0057626D01*
X0172033Y0201343D01*
X0033601Y0201712D01*
X0033601Y0200845D02*
X0144144Y0200845D01*
X0144009Y0200801D02*
X0143135Y0200356D01*
X0142342Y0199780D01*
X0141648Y0199086D01*
X0141072Y0198293D01*
X0140627Y0197420D01*
X0140324Y0196487D01*
X0140200Y0195705D01*
X0145723Y0195705D01*
X0145723Y0194352D01*
X0140200Y0194352D01*
X0140324Y0193570D01*
X0140627Y0192637D01*
X0141072Y0191764D01*
X0141648Y0190970D01*
X0142342Y0190277D01*
X0143135Y0189701D01*
X0144009Y0189256D01*
X0144941Y0188953D01*
X0145723Y0188829D01*
X0145723Y0194352D01*
X0147076Y0194352D01*
X0147076Y0188829D01*
X0147858Y0188953D01*
X0148791Y0189256D01*
X0149665Y0189701D01*
X0150458Y0190277D01*
X0151151Y0190970D01*
X0151727Y0191764D01*
X0152172Y0192637D01*
X0152475Y0193570D01*
X0152599Y0194352D01*
X0147076Y0194352D01*
X0147076Y0195705D01*
X0145723Y0195705D01*
X0145723Y0201228D01*
X0144941Y0201104D01*
X0144009Y0200801D01*
X0145723Y0200845D02*
X0147076Y0200845D01*
X0147076Y0201228D02*
X0147858Y0201104D01*
X0148791Y0200801D01*
X0149665Y0200356D01*
X0150458Y0199780D01*
X0151151Y0199086D01*
X0151727Y0198293D01*
X0152172Y0197420D01*
X0152475Y0196487D01*
X0152599Y0195705D01*
X0147076Y0195705D01*
X0147076Y0201228D01*
X0148655Y0200845D02*
X0172033Y0200845D01*
X0172033Y0199247D02*
X0150991Y0199247D01*
X0152056Y0197648D02*
X0172033Y0197648D01*
X0172033Y0196050D02*
X0152545Y0196050D01*
X0152242Y0192853D02*
X0172033Y0192853D01*
X0172033Y0194451D02*
X0147076Y0194451D01*
X0145723Y0194451D02*
X0033601Y0194451D01*
X0033601Y0192853D02*
X0140557Y0192853D01*
X0141442Y0191254D02*
X0033601Y0191254D01*
X0033601Y0189656D02*
X0143223Y0189656D01*
X0145723Y0189656D02*
X0147076Y0189656D01*
X0147076Y0191254D02*
X0145723Y0191254D01*
X0145723Y0192853D02*
X0147076Y0192853D01*
X0147076Y0196050D02*
X0145723Y0196050D01*
X0145723Y0197648D02*
X0147076Y0197648D01*
X0147076Y0199247D02*
X0145723Y0199247D01*
X0141809Y0199247D02*
X0033601Y0199247D01*
X0033601Y0197648D02*
X0140743Y0197648D01*
X0140255Y0196050D02*
X0033601Y0196050D01*
X0033601Y0188057D02*
X0045276Y0188057D01*
X0045211Y0188030D02*
X0043917Y0186736D01*
X0043217Y0185046D01*
X0043217Y0177216D01*
X0043917Y0175525D01*
X0045211Y0174231D01*
X0046902Y0173531D01*
X0048732Y0173531D01*
X0050423Y0174231D01*
X0051717Y0175525D01*
X0052417Y0177216D01*
X0052417Y0185046D01*
X0051717Y0186736D01*
X0050423Y0188030D01*
X0048732Y0188731D01*
X0046902Y0188731D01*
X0045211Y0188030D01*
X0043802Y0186459D02*
X0033601Y0186459D01*
X0033601Y0184860D02*
X0043217Y0184860D01*
X0043217Y0183262D02*
X0033601Y0183262D01*
X0033601Y0181663D02*
X0043217Y0181663D01*
X0043217Y0180065D02*
X0033601Y0180065D01*
X0033601Y0178466D02*
X0043217Y0178466D01*
X0043361Y0176868D02*
X0033601Y0176868D01*
X0033601Y0175269D02*
X0044173Y0175269D01*
X0046565Y0173670D02*
X0033601Y0173670D01*
X0033601Y0172072D02*
X0054169Y0172072D01*
X0054326Y0172451D02*
X0053960Y0171569D01*
X0053960Y0170132D01*
X0053532Y0170132D01*
X0052595Y0169195D01*
X0052595Y0163933D01*
X0053310Y0163217D01*
X0052595Y0162502D01*
X0052595Y0162074D01*
X0041316Y0162074D01*
X0040434Y0161709D01*
X0039759Y0161034D01*
X0035822Y0157096D01*
X0035456Y0156214D01*
X0035456Y0122976D01*
X0035822Y0122094D01*
X0036497Y0121419D01*
X0041511Y0116405D01*
X0039916Y0116405D01*
X0037819Y0114307D01*
X0037819Y0111340D01*
X0039000Y0110159D01*
X0039000Y0093055D01*
X0039365Y0092173D01*
X0044877Y0086661D01*
X0045552Y0085986D01*
X0046434Y0085620D01*
X0049831Y0085620D01*
X0049831Y0085176D01*
X0050532Y0083486D01*
X0051826Y0082192D01*
X0053516Y0081491D01*
X0055346Y0081491D01*
X0057037Y0082192D01*
X0058331Y0083486D01*
X0059031Y0085176D01*
X0059031Y0087006D01*
X0058331Y0088697D01*
X0057037Y0089991D01*
X0055346Y0090691D01*
X0053516Y0090691D01*
X0052862Y0090420D01*
X0047906Y0090420D01*
X0043800Y0094526D01*
X0043800Y0097091D01*
X0045428Y0095463D01*
X0048395Y0095463D01*
X0049576Y0096644D01*
X0060484Y0096644D01*
X0069831Y0087297D01*
X0069831Y0084186D01*
X0072526Y0081491D01*
X0076337Y0081491D01*
X0079031Y0084186D01*
X0079031Y0087997D01*
X0078258Y0088770D01*
X0079382Y0088770D01*
X0084905Y0083247D01*
X0084905Y0063312D01*
X0084700Y0063227D01*
X0083406Y0061933D01*
X0082705Y0060243D01*
X0082705Y0052413D01*
X0083406Y0050722D01*
X0084700Y0049428D01*
X0084905Y0049343D01*
X0084905Y0043685D01*
X0085271Y0042803D01*
X0087634Y0040439D01*
X0087634Y0037436D01*
X0088572Y0036499D01*
X0093834Y0036499D01*
X0094429Y0037094D01*
X0094487Y0036994D01*
X0094822Y0036659D01*
X0095233Y0036422D01*
X0095690Y0036299D01*
X0097712Y0036299D01*
X0097712Y0040080D01*
X0098080Y0040080D01*
X0098080Y0036299D01*
X0100101Y0036299D01*
X0100559Y0036422D01*
X0100970Y0036659D01*
X0101305Y0036994D01*
X0101542Y0037404D01*
X0101664Y0037862D01*
X0101664Y0040080D01*
X0098080Y0040080D01*
X0098080Y0040449D01*
X0097712Y0040449D01*
X0097712Y0044230D01*
X0095690Y0044230D01*
X0095233Y0044107D01*
X0094822Y0043870D01*
X0094487Y0043535D01*
X0094429Y0043435D01*
X0093834Y0044030D01*
X0090832Y0044030D01*
X0089705Y0045156D01*
X0089705Y0049343D01*
X0089911Y0049428D01*
X0091205Y0050722D01*
X0091905Y0052413D01*
X0091905Y0060243D01*
X0091205Y0061933D01*
X0089911Y0063227D01*
X0089705Y0063312D01*
X0089705Y0084718D01*
X0089340Y0085600D01*
X0088665Y0086276D01*
X0082776Y0092164D01*
X0082776Y0093835D01*
X0082722Y0093888D01*
X0083828Y0093888D01*
X0085926Y0095986D01*
X0085926Y0098953D01*
X0085085Y0099794D01*
X0085184Y0099794D01*
X0085227Y0099811D01*
X0085273Y0099813D01*
X0085666Y0099993D01*
X0086066Y0100159D01*
X0086099Y0100192D01*
X0086141Y0100211D01*
X0086435Y0100528D01*
X0086741Y0100834D01*
X0086759Y0100877D01*
X0091553Y0106040D01*
X0091860Y0106346D01*
X0091877Y0106389D01*
X0091908Y0106422D01*
X0092059Y0106828D01*
X0092225Y0107228D01*
X0092225Y0107274D01*
X0092241Y0107317D01*
X0092225Y0107750D01*
X0092225Y0112223D01*
X0093940Y0113939D01*
X0094512Y0114510D01*
X0094512Y0090291D01*
X0093330Y0089110D01*
X0093330Y0086143D01*
X0095428Y0084046D01*
X0098395Y0084046D01*
X0099236Y0084887D01*
X0099236Y0077693D01*
X0098055Y0076512D01*
X0098055Y0073545D01*
X0100153Y0071447D01*
X0103119Y0071447D01*
X0105217Y0073545D01*
X0105217Y0076512D01*
X0104036Y0077693D01*
X0104036Y0092538D01*
X0113654Y0102156D01*
X0125743Y0102156D01*
X0126924Y0100975D01*
X0129891Y0100975D01*
X0131989Y0103073D01*
X0131989Y0106039D01*
X0131900Y0106128D01*
X0133959Y0106128D01*
X0135311Y0106128D01*
X0135410Y0106154D01*
X0135410Y0104425D01*
X0135843Y0103992D01*
X0135843Y0095591D01*
X0136178Y0094783D01*
X0136178Y0093775D01*
X0136893Y0093060D01*
X0136178Y0092345D01*
X0136178Y0088414D01*
X0135276Y0086589D01*
X0133217Y0086589D01*
X0132530Y0085902D01*
X0132530Y0086576D01*
X0128159Y0086576D01*
X0128159Y0082992D01*
X0130967Y0082992D01*
X0131425Y0083115D01*
X0131836Y0083352D01*
X0132171Y0083687D01*
X0132280Y0083876D01*
X0132280Y0081962D01*
X0131393Y0082849D01*
X0124556Y0082849D01*
X0123619Y0081912D01*
X0123619Y0081680D01*
X0123118Y0081680D01*
X0123118Y0083762D01*
X0122523Y0084357D01*
X0122623Y0084415D01*
X0122958Y0084750D01*
X0123195Y0085160D01*
X0123318Y0085618D01*
X0123318Y0087639D01*
X0119537Y0087639D01*
X0119537Y0088008D01*
X0123318Y0088008D01*
X0123318Y0090029D01*
X0123195Y0090487D01*
X0122958Y0090897D01*
X0122623Y0091232D01*
X0122213Y0091469D01*
X0121755Y0091592D01*
X0119537Y0091592D01*
X0119537Y0088008D01*
X0119168Y0088008D01*
X0119168Y0087639D01*
X0115387Y0087639D01*
X0115387Y0085618D01*
X0115510Y0085160D01*
X0115747Y0084750D01*
X0116082Y0084415D01*
X0116182Y0084357D01*
X0115587Y0083762D01*
X0115587Y0078499D01*
X0116362Y0077725D01*
X0116362Y0076431D01*
X0116131Y0076431D01*
X0115415Y0075716D01*
X0114700Y0076431D01*
X0109438Y0076431D01*
X0108501Y0075494D01*
X0108501Y0074657D01*
X0104607Y0070764D01*
X0103932Y0070089D01*
X0103567Y0069207D01*
X0103567Y0035078D01*
X0101429Y0032940D01*
X0073496Y0032940D01*
X0044981Y0061456D01*
X0044981Y0079451D01*
X0046162Y0080632D01*
X0046162Y0083598D01*
X0044064Y0085696D01*
X0041097Y0085696D01*
X0039000Y0083598D01*
X0039000Y0080632D01*
X0040181Y0079451D01*
X0040181Y0059984D01*
X0040546Y0059102D01*
X0041221Y0058427D01*
X0041221Y0058427D01*
X0070467Y0029181D01*
X0070467Y0029181D01*
X0071143Y0028506D01*
X0072025Y0028140D01*
X0102901Y0028140D01*
X0103783Y0028506D01*
X0104458Y0029181D01*
X0108001Y0032724D01*
X0108367Y0033606D01*
X0108367Y0067735D01*
X0109532Y0068901D01*
X0114700Y0068901D01*
X0115415Y0069616D01*
X0116131Y0068901D01*
X0121393Y0068901D01*
X0122330Y0069838D01*
X0122330Y0075494D01*
X0121393Y0076431D01*
X0121162Y0076431D01*
X0121162Y0076880D01*
X0123619Y0076880D01*
X0123619Y0076649D01*
X0123701Y0076567D01*
X0122858Y0075724D01*
X0122858Y0072758D01*
X0124956Y0070660D01*
X0125007Y0070660D01*
X0123918Y0069571D01*
X0123918Y0064580D01*
X0127447Y0061051D01*
X0132439Y0061051D01*
X0135968Y0064580D01*
X0135968Y0067617D01*
X0140968Y0062617D01*
X0140968Y0045314D01*
X0135209Y0039554D01*
X0134787Y0039554D01*
X0134787Y0039650D01*
X0131258Y0043179D01*
X0126266Y0043179D01*
X0122737Y0039650D01*
X0122737Y0034659D01*
X0126266Y0031129D01*
X0131258Y0031129D01*
X0134787Y0034659D01*
X0134787Y0034754D01*
X0136680Y0034754D01*
X0137562Y0035120D01*
X0144728Y0042285D01*
X0145403Y0042960D01*
X0145768Y0043842D01*
X0145768Y0064088D01*
X0145403Y0064971D01*
X0134773Y0075600D01*
X0134098Y0076276D01*
X0133216Y0076641D01*
X0132322Y0076641D01*
X0132330Y0076649D01*
X0132330Y0080339D01*
X0133217Y0079452D01*
X0140055Y0079452D01*
X0140992Y0080389D01*
X0140992Y0085515D01*
X0141303Y0086145D01*
X0142771Y0086145D01*
X0143485Y0086859D01*
X0145400Y0086830D01*
X0146216Y0086014D01*
X0149182Y0086014D01*
X0151280Y0088112D01*
X0151280Y0091079D01*
X0149182Y0093176D01*
X0146216Y0093176D01*
X0145469Y0092430D01*
X0143595Y0092458D01*
X0142993Y0093060D01*
X0143708Y0093775D01*
X0143708Y0094783D01*
X0144043Y0095591D01*
X0144043Y0098527D01*
X0152679Y0107163D01*
X0153787Y0106055D01*
X0154066Y0105383D01*
X0155219Y0104230D01*
X0156726Y0103606D01*
X0158357Y0103606D01*
X0159864Y0104230D01*
X0161017Y0105383D01*
X0161641Y0106890D01*
X0161641Y0108915D01*
X0161017Y0110422D01*
X0157311Y0114128D01*
X0157311Y0118992D01*
X0157960Y0119641D01*
X0157960Y0122374D01*
X0157965Y0122378D01*
X0158634Y0123996D01*
X0158634Y0134771D01*
X0159791Y0135250D01*
X0161076Y0136535D01*
X0161771Y0138214D01*
X0161771Y0140032D01*
X0161076Y0141711D01*
X0159791Y0142996D01*
X0158112Y0143691D01*
X0150357Y0143691D01*
X0148678Y0142996D01*
X0147393Y0141711D01*
X0146697Y0140032D01*
X0146697Y0138214D01*
X0147393Y0136535D01*
X0148678Y0135250D01*
X0149834Y0134771D01*
X0149834Y0128991D01*
X0149398Y0128991D01*
X0148461Y0128053D01*
X0148461Y0119641D01*
X0149111Y0118992D01*
X0149111Y0115191D01*
X0144572Y0110652D01*
X0144572Y0112115D01*
X0144572Y0113664D01*
X0144432Y0114186D01*
X0144162Y0114653D01*
X0143780Y0115035D01*
X0143313Y0115305D01*
X0143217Y0115331D01*
X0144122Y0116236D01*
X0144122Y0119805D01*
X0143185Y0120743D01*
X0142166Y0120743D01*
X0142166Y0125840D01*
X0141800Y0126722D01*
X0141125Y0127398D01*
X0140519Y0128004D01*
X0140519Y0133565D01*
X0139582Y0134502D01*
X0131170Y0134502D01*
X0130233Y0133565D01*
X0130233Y0132153D01*
X0128433Y0132153D01*
X0128433Y0133959D01*
X0127496Y0134896D01*
X0119083Y0134896D01*
X0118146Y0133959D01*
X0118146Y0132546D01*
X0117803Y0132546D01*
X0117803Y0135927D01*
X0116866Y0136865D01*
X0115060Y0136865D01*
X0115060Y0140080D01*
X0116241Y0141262D01*
X0116241Y0144228D01*
X0114143Y0146326D01*
X0111176Y0146326D01*
X0109078Y0144228D01*
X0109078Y0141262D01*
X0110260Y0140080D01*
X0110260Y0136865D01*
X0109241Y0136865D01*
X0108304Y0135927D01*
X0108304Y0127515D01*
X0109078Y0126740D01*
X0109078Y0126235D01*
X0107272Y0126235D01*
X0106335Y0125297D01*
X0106335Y0117673D01*
X0107272Y0116735D01*
X0115685Y0116735D01*
X0116622Y0117673D01*
X0116622Y0125297D01*
X0115685Y0126235D01*
X0113878Y0126235D01*
X0113878Y0126578D01*
X0116866Y0126578D01*
X0117803Y0127515D01*
X0117803Y0127746D01*
X0118146Y0127746D01*
X0118146Y0126334D01*
X0119083Y0125397D01*
X0120168Y0125397D01*
X0120102Y0125331D01*
X0120102Y0122364D01*
X0122200Y0120266D01*
X0125167Y0120266D01*
X0127264Y0122364D01*
X0127264Y0125331D01*
X0127198Y0125397D01*
X0127496Y0125397D01*
X0128433Y0126334D01*
X0128433Y0127353D01*
X0130233Y0127353D01*
X0130233Y0125940D01*
X0131170Y0125003D01*
X0136732Y0125003D01*
X0137366Y0124369D01*
X0137366Y0120743D01*
X0136347Y0120743D01*
X0135410Y0119805D01*
X0135410Y0118076D01*
X0135311Y0118102D01*
X0133959Y0118102D01*
X0133959Y0112115D01*
X0144572Y0112115D01*
X0133959Y0112115D01*
X0133959Y0112115D01*
X0133959Y0112115D01*
X0133526Y0111682D01*
X0133919Y0104556D01*
X0135410Y0104935D02*
X0131989Y0104935D01*
X0131989Y0103336D02*
X0135843Y0103336D01*
X0135843Y0101737D02*
X0130654Y0101737D01*
X0128408Y0104556D02*
X0112660Y0104556D01*
X0101636Y0093532D01*
X0101636Y0075028D01*
X0104036Y0077760D02*
X0116327Y0077760D01*
X0115861Y0076161D02*
X0114970Y0076161D01*
X0115587Y0079358D02*
X0104036Y0079358D01*
X0104036Y0080957D02*
X0115587Y0080957D01*
X0115587Y0082555D02*
X0104036Y0082555D01*
X0104036Y0084154D02*
X0115979Y0084154D01*
X0115387Y0085752D02*
X0104036Y0085752D01*
X0104036Y0087351D02*
X0115387Y0087351D01*
X0115387Y0088008D02*
X0119168Y0088008D01*
X0119168Y0091592D01*
X0116950Y0091592D01*
X0116492Y0091469D01*
X0116082Y0091232D01*
X0115747Y0090897D01*
X0115510Y0090487D01*
X0115387Y0090029D01*
X0115387Y0088008D01*
X0115387Y0088949D02*
X0104036Y0088949D01*
X0104036Y0090548D02*
X0115545Y0090548D01*
X0119168Y0090548D02*
X0119537Y0090548D01*
X0119537Y0088949D02*
X0119168Y0088949D01*
X0122726Y0084154D02*
X0123526Y0084154D01*
X0123541Y0084097D02*
X0123778Y0083687D01*
X0124113Y0083352D01*
X0124524Y0083115D01*
X0124982Y0082992D01*
X0127790Y0082992D01*
X0127790Y0086576D01*
X0128159Y0086576D01*
X0128159Y0086945D01*
X0132530Y0086945D01*
X0132530Y0088966D01*
X0132408Y0089424D01*
X0132171Y0089834D01*
X0131836Y0090169D01*
X0131425Y0090406D01*
X0130967Y0090529D01*
X0128159Y0090529D01*
X0128159Y0086945D01*
X0127790Y0086945D01*
X0127790Y0086576D01*
X0123419Y0086576D01*
X0123419Y0084555D01*
X0123541Y0084097D01*
X0123118Y0082555D02*
X0124262Y0082555D01*
X0121203Y0079280D02*
X0119352Y0081131D01*
X0118762Y0080540D01*
X0118762Y0072666D01*
X0122330Y0072964D02*
X0122858Y0072964D01*
X0122858Y0074563D02*
X0122330Y0074563D01*
X0121663Y0076161D02*
X0123295Y0076161D01*
X0126439Y0074241D02*
X0132738Y0074241D01*
X0143368Y0063611D01*
X0143368Y0044320D01*
X0136203Y0037154D01*
X0128762Y0037154D01*
X0133130Y0033002D02*
X0172033Y0033002D01*
X0172033Y0034600D02*
X0134728Y0034600D01*
X0138641Y0036199D02*
X0172033Y0036199D01*
X0172033Y0037797D02*
X0140240Y0037797D01*
X0141838Y0039396D02*
X0172033Y0039396D01*
X0172033Y0040994D02*
X0143437Y0040994D01*
X0145035Y0042593D02*
X0155012Y0042593D01*
X0155123Y0042547D02*
X0157519Y0042547D01*
X0159734Y0043464D01*
X0161429Y0045159D01*
X0162346Y0047373D01*
X0162346Y0049770D01*
X0161429Y0051985D01*
X0159734Y0053679D01*
X0157519Y0054597D01*
X0155123Y0054597D01*
X0152908Y0053679D01*
X0151213Y0051985D01*
X0150296Y0049770D01*
X0150296Y0047373D01*
X0151213Y0045159D01*
X0152908Y0043464D01*
X0155123Y0042547D01*
X0152181Y0044191D02*
X0145768Y0044191D01*
X0145768Y0045790D02*
X0150952Y0045790D01*
X0150296Y0047388D02*
X0145768Y0047388D01*
X0145768Y0048987D02*
X0150296Y0048987D01*
X0150634Y0050585D02*
X0145768Y0050585D01*
X0145768Y0052184D02*
X0151412Y0052184D01*
X0153156Y0053782D02*
X0145768Y0053782D01*
X0145768Y0055381D02*
X0160139Y0055381D01*
X0160139Y0056979D02*
X0145768Y0056979D01*
X0145768Y0058578D02*
X0160688Y0058578D01*
X0161767Y0060176D02*
X0145768Y0060176D01*
X0145768Y0061775D02*
X0164235Y0061775D01*
X0168092Y0061775D02*
X0172033Y0061775D01*
X0172033Y0063373D02*
X0145768Y0063373D01*
X0145402Y0064972D02*
X0172033Y0064972D01*
X0172033Y0066570D02*
X0143803Y0066570D01*
X0142205Y0068169D02*
X0172033Y0068169D01*
X0172033Y0069767D02*
X0140606Y0069767D01*
X0139008Y0071366D02*
X0172033Y0071366D01*
X0172033Y0072964D02*
X0137409Y0072964D01*
X0135811Y0074563D02*
X0172033Y0074563D01*
X0172033Y0076161D02*
X0134212Y0076161D01*
X0132330Y0077760D02*
X0172033Y0077760D01*
X0172033Y0079358D02*
X0132330Y0079358D01*
X0132280Y0082555D02*
X0131687Y0082555D01*
X0128159Y0084154D02*
X0127790Y0084154D01*
X0127790Y0085752D02*
X0128159Y0085752D01*
X0127790Y0086945D02*
X0123419Y0086945D01*
X0123419Y0088966D01*
X0123541Y0089424D01*
X0123778Y0089834D01*
X0124113Y0090169D01*
X0124524Y0090406D01*
X0124982Y0090529D01*
X0127790Y0090529D01*
X0127790Y0086945D01*
X0127790Y0087351D02*
X0128159Y0087351D01*
X0128159Y0088949D02*
X0127790Y0088949D01*
X0123419Y0088949D02*
X0123318Y0088949D01*
X0123318Y0087351D02*
X0123419Y0087351D01*
X0123419Y0085752D02*
X0123318Y0085752D01*
X0123160Y0090548D02*
X0136178Y0090548D01*
X0136178Y0092146D02*
X0104036Y0092146D01*
X0105243Y0093745D02*
X0136208Y0093745D01*
X0135945Y0095343D02*
X0106841Y0095343D01*
X0108440Y0096942D02*
X0135843Y0096942D01*
X0135843Y0098540D02*
X0110038Y0098540D01*
X0111637Y0100139D02*
X0135843Y0100139D01*
X0133959Y0106128D02*
X0133959Y0112115D01*
X0133959Y0112115D01*
X0133959Y0118102D01*
X0125126Y0118102D01*
X0124605Y0117962D01*
X0124137Y0117692D01*
X0123755Y0117311D01*
X0123485Y0116843D01*
X0123346Y0116322D01*
X0123346Y0112115D01*
X0133959Y0112115D01*
X0133959Y0106128D01*
X0133959Y0106533D02*
X0133959Y0106533D01*
X0133959Y0108132D02*
X0133959Y0108132D01*
X0133959Y0109730D02*
X0133959Y0109730D01*
X0133959Y0111329D02*
X0133959Y0111329D01*
X0133959Y0112115D02*
X0123346Y0112115D01*
X0123346Y0107908D01*
X0123485Y0107387D01*
X0123734Y0106956D01*
X0116790Y0106956D01*
X0116822Y0107075D01*
X0116822Y0109687D01*
X0112253Y0109687D01*
X0112253Y0111236D01*
X0110704Y0111236D01*
X0110704Y0115411D01*
X0107698Y0115411D01*
X0107240Y0115288D01*
X0106830Y0115051D01*
X0106495Y0114716D01*
X0106258Y0114306D01*
X0106135Y0113848D01*
X0106135Y0111236D01*
X0110704Y0111236D01*
X0110704Y0109687D01*
X0106135Y0109687D01*
X0106135Y0107075D01*
X0106258Y0106617D01*
X0106495Y0106207D01*
X0106830Y0105871D01*
X0107240Y0105634D01*
X0107698Y0105512D01*
X0110221Y0105512D01*
X0100276Y0095567D01*
X0099601Y0094892D01*
X0099312Y0094192D01*
X0099312Y0125506D01*
X0098950Y0126378D01*
X0101255Y0126378D01*
X0101255Y0130946D01*
X0102804Y0130946D01*
X0102804Y0126378D01*
X0105416Y0126378D01*
X0105874Y0126501D01*
X0106284Y0126738D01*
X0106620Y0127073D01*
X0106857Y0127483D01*
X0106979Y0127941D01*
X0106979Y0130946D01*
X0102805Y0130946D01*
X0102805Y0132496D01*
X0106979Y0132496D01*
X0106979Y0135502D01*
X0106857Y0135959D01*
X0106620Y0136370D01*
X0106284Y0136705D01*
X0105874Y0136942D01*
X0105416Y0137065D01*
X0102804Y0137065D01*
X0102804Y0132496D01*
X0101255Y0132496D01*
X0101255Y0137065D01*
X0098643Y0137065D01*
X0098185Y0136942D01*
X0097775Y0136705D01*
X0097440Y0136370D01*
X0097203Y0135959D01*
X0097129Y0135685D01*
X0092235Y0140580D01*
X0093828Y0142173D01*
X0094193Y0143055D01*
X0094193Y0156302D01*
X0094622Y0156302D01*
X0095559Y0157240D01*
X0095559Y0162502D01*
X0094844Y0163217D01*
X0095559Y0163933D01*
X0095559Y0169195D01*
X0094622Y0170132D01*
X0094193Y0170132D01*
X0094193Y0171569D01*
X0093828Y0172451D01*
X0093153Y0173126D01*
X0091235Y0175044D01*
X0091717Y0175525D01*
X0092417Y0177216D01*
X0092417Y0185046D01*
X0091717Y0186736D01*
X0090423Y0188030D01*
X0088732Y0188731D01*
X0086902Y0188731D01*
X0085211Y0188030D01*
X0083917Y0186736D01*
X0083217Y0185046D01*
X0083217Y0177216D01*
X0083917Y0175525D01*
X0085211Y0174231D01*
X0085639Y0174054D01*
X0085782Y0173708D01*
X0089358Y0170132D01*
X0088965Y0170132D01*
X0088028Y0169195D01*
X0088028Y0163933D01*
X0088743Y0163217D01*
X0088028Y0162502D01*
X0088028Y0157240D01*
X0088965Y0156302D01*
X0089393Y0156302D01*
X0089393Y0144526D01*
X0087481Y0142614D01*
X0086806Y0141939D01*
X0084500Y0139633D01*
X0072411Y0139633D01*
X0071230Y0140814D01*
X0068263Y0140814D01*
X0066165Y0138716D01*
X0066165Y0137140D01*
X0059005Y0137140D01*
X0058067Y0136203D01*
X0058067Y0127791D01*
X0059005Y0126854D01*
X0060540Y0126854D01*
X0060782Y0126267D01*
X0063015Y0124034D01*
X0063015Y0122364D01*
X0065038Y0120342D01*
X0060675Y0120342D01*
X0061910Y0121577D01*
X0061910Y0124543D01*
X0059812Y0126641D01*
X0056846Y0126641D01*
X0055664Y0125460D01*
X0051449Y0125460D01*
X0050255Y0126654D01*
X0051019Y0126654D01*
X0051019Y0131222D01*
X0052568Y0131222D01*
X0052568Y0126654D01*
X0055180Y0126654D01*
X0055638Y0126776D01*
X0056048Y0127013D01*
X0056383Y0127348D01*
X0056620Y0127759D01*
X0056743Y0128217D01*
X0056743Y0131222D01*
X0052568Y0131222D01*
X0052568Y0132772D01*
X0051019Y0132772D01*
X0051019Y0137340D01*
X0048918Y0137340D01*
X0048918Y0137814D01*
X0053417Y0142313D01*
X0065365Y0142313D01*
X0065397Y0142301D01*
X0065841Y0142313D01*
X0066287Y0142313D01*
X0066318Y0142326D01*
X0066351Y0142327D01*
X0066757Y0142508D01*
X0067169Y0142679D01*
X0067192Y0142703D01*
X0067223Y0142716D01*
X0067529Y0143039D01*
X0067844Y0143354D01*
X0067857Y0143385D01*
X0073928Y0149794D01*
X0074562Y0149794D01*
X0075743Y0148613D01*
X0078710Y0148613D01*
X0080808Y0150710D01*
X0080808Y0153677D01*
X0078786Y0155699D01*
X0079494Y0156302D01*
X0082810Y0156302D01*
X0083748Y0157240D01*
X0083748Y0162502D01*
X0083033Y0163217D01*
X0083748Y0163933D01*
X0083748Y0169195D01*
X0082810Y0170132D01*
X0082382Y0170132D01*
X0082382Y0171569D01*
X0082017Y0172451D01*
X0081342Y0173126D01*
X0080291Y0174177D01*
X0080423Y0174231D01*
X0081717Y0175525D01*
X0082417Y0177216D01*
X0082417Y0185046D01*
X0081717Y0186736D01*
X0080423Y0188030D01*
X0078732Y0188731D01*
X0076902Y0188731D01*
X0075211Y0188030D01*
X0073917Y0186736D01*
X0073217Y0185046D01*
X0073217Y0177216D01*
X0073917Y0175525D01*
X0075211Y0174231D01*
X0075417Y0174146D01*
X0075417Y0172779D01*
X0075782Y0171897D01*
X0077547Y0170132D01*
X0077154Y0170132D01*
X0076217Y0169195D01*
X0076217Y0163933D01*
X0076932Y0163217D01*
X0076217Y0162502D01*
X0076217Y0159816D01*
X0073718Y0157687D01*
X0071937Y0157572D01*
X0071937Y0162502D01*
X0071222Y0163217D01*
X0071937Y0163933D01*
X0071937Y0169195D01*
X0070999Y0170132D01*
X0070571Y0170132D01*
X0070571Y0171569D01*
X0070217Y0172424D01*
X0070217Y0174146D01*
X0070423Y0174231D01*
X0071717Y0175525D01*
X0072417Y0177216D01*
X0072417Y0185046D01*
X0071717Y0186736D01*
X0070423Y0188030D01*
X0068732Y0188731D01*
X0066902Y0188731D01*
X0065211Y0188030D01*
X0063917Y0186736D01*
X0063217Y0185046D01*
X0063217Y0177216D01*
X0063917Y0175525D01*
X0065211Y0174231D01*
X0065417Y0174146D01*
X0065417Y0170968D01*
X0065763Y0170132D01*
X0065343Y0170132D01*
X0064406Y0169195D01*
X0064406Y0163933D01*
X0065121Y0163217D01*
X0064406Y0162502D01*
X0064406Y0159500D01*
X0059500Y0154594D01*
X0041710Y0154594D01*
X0040828Y0154228D01*
X0040256Y0153657D01*
X0040256Y0154743D01*
X0042788Y0157274D01*
X0052595Y0157274D01*
X0052595Y0157240D01*
X0053532Y0156302D01*
X0059188Y0156302D01*
X0060126Y0157240D01*
X0060126Y0162502D01*
X0059410Y0163217D01*
X0060126Y0163933D01*
X0060126Y0169195D01*
X0059188Y0170132D01*
X0058795Y0170132D01*
X0059852Y0171189D01*
X0060217Y0172071D01*
X0060217Y0174146D01*
X0060423Y0174231D01*
X0061717Y0175525D01*
X0062417Y0177216D01*
X0062417Y0185046D01*
X0061717Y0186736D01*
X0060423Y0188030D01*
X0058732Y0188731D01*
X0056902Y0188731D01*
X0055211Y0188030D01*
X0053917Y0186736D01*
X0053217Y0185046D01*
X0053217Y0177216D01*
X0053917Y0175525D01*
X0055211Y0174231D01*
X0055417Y0174146D01*
X0055417Y0173542D01*
X0055001Y0173126D01*
X0054326Y0172451D01*
X0055417Y0173670D02*
X0049070Y0173670D01*
X0051461Y0175269D02*
X0054173Y0175269D01*
X0053361Y0176868D02*
X0052273Y0176868D01*
X0052417Y0178466D02*
X0053217Y0178466D01*
X0053217Y0180065D02*
X0052417Y0180065D01*
X0052417Y0181663D02*
X0053217Y0181663D01*
X0053217Y0183262D02*
X0052417Y0183262D01*
X0052417Y0184860D02*
X0053217Y0184860D01*
X0053802Y0186459D02*
X0051832Y0186459D01*
X0050358Y0188057D02*
X0055276Y0188057D01*
X0060358Y0188057D02*
X0065276Y0188057D01*
X0063802Y0186459D02*
X0061832Y0186459D01*
X0062417Y0184860D02*
X0063217Y0184860D01*
X0063217Y0183262D02*
X0062417Y0183262D01*
X0062417Y0181663D02*
X0063217Y0181663D01*
X0063217Y0180065D02*
X0062417Y0180065D01*
X0062417Y0178466D02*
X0063217Y0178466D01*
X0063361Y0176868D02*
X0062273Y0176868D01*
X0061461Y0175269D02*
X0064173Y0175269D01*
X0065417Y0173670D02*
X0060217Y0173670D01*
X0060217Y0172072D02*
X0065417Y0172072D01*
X0065622Y0170473D02*
X0059137Y0170473D01*
X0060126Y0168875D02*
X0064406Y0168875D01*
X0064406Y0167276D02*
X0060126Y0167276D01*
X0060126Y0165678D02*
X0064406Y0165678D01*
X0064406Y0164079D02*
X0060126Y0164079D01*
X0060126Y0162481D02*
X0064406Y0162481D01*
X0064406Y0160882D02*
X0060126Y0160882D01*
X0060126Y0159284D02*
X0064190Y0159284D01*
X0062592Y0157685D02*
X0060126Y0157685D01*
X0060993Y0156087D02*
X0041600Y0156087D01*
X0041455Y0154488D02*
X0040256Y0154488D01*
X0037856Y0155737D02*
X0041793Y0159674D01*
X0056164Y0159674D01*
X0056360Y0159871D01*
X0052595Y0162481D02*
X0033601Y0162481D01*
X0033601Y0164079D02*
X0052595Y0164079D01*
X0052595Y0165678D02*
X0033601Y0165678D01*
X0033601Y0167276D02*
X0052595Y0167276D01*
X0052595Y0168875D02*
X0033601Y0168875D01*
X0033601Y0170473D02*
X0053960Y0170473D01*
X0056360Y0171091D02*
X0056360Y0166564D01*
X0056360Y0171091D02*
X0057817Y0172548D01*
X0057817Y0181131D01*
X0067817Y0181131D02*
X0067817Y0171446D01*
X0068171Y0171091D01*
X0068171Y0166564D01*
X0071937Y0167276D02*
X0076217Y0167276D01*
X0076217Y0165678D02*
X0071937Y0165678D01*
X0071937Y0164079D02*
X0076217Y0164079D01*
X0076217Y0162481D02*
X0071937Y0162481D01*
X0071937Y0160882D02*
X0076217Y0160882D01*
X0075592Y0159284D02*
X0071937Y0159284D01*
X0071937Y0157685D02*
X0073693Y0157685D01*
X0074667Y0155343D02*
X0068565Y0154950D01*
X0068171Y0159871D02*
X0060494Y0152194D01*
X0042187Y0152194D01*
X0040612Y0150619D01*
X0040612Y0127391D01*
X0050061Y0117942D01*
X0085888Y0117942D01*
X0083223Y0120342D02*
X0084405Y0121523D01*
X0087371Y0121523D01*
X0089469Y0119425D01*
X0089469Y0116458D01*
X0087371Y0114361D01*
X0084405Y0114361D01*
X0083223Y0115542D01*
X0049584Y0115542D01*
X0048864Y0115840D01*
X0052236Y0112468D01*
X0058413Y0112468D01*
X0059295Y0112102D01*
X0059970Y0111427D01*
X0071528Y0099869D01*
X0071731Y0099869D01*
X0070889Y0100710D01*
X0070889Y0103677D01*
X0072987Y0105775D01*
X0075954Y0105775D01*
X0077135Y0104594D01*
X0083660Y0104594D01*
X0087425Y0108648D01*
X0087425Y0113695D01*
X0087790Y0114577D01*
X0090181Y0116967D01*
X0090181Y0118821D01*
X0089000Y0120002D01*
X0089000Y0122968D01*
X0090756Y0124724D01*
X0089261Y0124724D01*
X0089261Y0129293D01*
X0087712Y0129293D01*
X0087712Y0124724D01*
X0085100Y0124724D01*
X0084642Y0124847D01*
X0084232Y0125084D01*
X0083896Y0125419D01*
X0083659Y0125830D01*
X0083537Y0126287D01*
X0083537Y0129293D01*
X0087711Y0129293D01*
X0087711Y0130843D01*
X0087712Y0130843D02*
X0087712Y0135411D01*
X0087066Y0135411D01*
X0087529Y0135874D01*
X0088841Y0137185D01*
X0090615Y0135411D01*
X0089261Y0135411D01*
X0089261Y0130843D01*
X0087712Y0130843D01*
X0087711Y0130843D02*
X0083537Y0130843D01*
X0083537Y0133848D01*
X0083659Y0134306D01*
X0083896Y0134716D01*
X0084013Y0134833D01*
X0081653Y0134833D01*
X0082212Y0134274D01*
X0082212Y0125862D01*
X0081275Y0124924D01*
X0077277Y0124924D01*
X0078445Y0123756D01*
X0078445Y0120789D01*
X0077998Y0120342D01*
X0083223Y0120342D01*
X0083801Y0120920D02*
X0078445Y0120920D01*
X0078445Y0122518D02*
X0089000Y0122518D01*
X0089000Y0120920D02*
X0087974Y0120920D01*
X0089469Y0119321D02*
X0089680Y0119321D01*
X0089469Y0117723D02*
X0090181Y0117723D01*
X0089338Y0116124D02*
X0089135Y0116124D01*
X0087769Y0114526D02*
X0087536Y0114526D01*
X0087425Y0112927D02*
X0051777Y0112927D01*
X0050178Y0114526D02*
X0084240Y0114526D01*
X0087425Y0111329D02*
X0060068Y0111329D01*
X0061667Y0109730D02*
X0087425Y0109730D01*
X0086945Y0108132D02*
X0063265Y0108132D01*
X0064864Y0106533D02*
X0085461Y0106533D01*
X0083977Y0104935D02*
X0076794Y0104935D01*
X0074471Y0102194D02*
X0084707Y0102194D01*
X0089825Y0107706D01*
X0089825Y0113217D01*
X0092581Y0115973D01*
X0092581Y0121485D01*
X0090148Y0124117D02*
X0078085Y0124117D01*
X0074864Y0122272D02*
X0074864Y0127469D01*
X0077463Y0130068D01*
X0082212Y0130511D02*
X0087711Y0130511D01*
X0088486Y0130068D02*
X0087463Y0129044D01*
X0087463Y0123454D01*
X0087712Y0125715D02*
X0089261Y0125715D01*
X0089261Y0127314D02*
X0087712Y0127314D01*
X0087712Y0128912D02*
X0089261Y0128912D01*
X0089261Y0132109D02*
X0087712Y0132109D01*
X0087712Y0133708D02*
X0089261Y0133708D01*
X0089261Y0135306D02*
X0087712Y0135306D01*
X0088560Y0136905D02*
X0089121Y0136905D01*
X0085494Y0137233D02*
X0088841Y0140580D01*
X0095337Y0134083D01*
X0095337Y0126603D01*
X0096912Y0125028D01*
X0096912Y0087627D01*
X0093330Y0087351D02*
X0087589Y0087351D01*
X0088665Y0086276D02*
X0088665Y0086276D01*
X0089188Y0085752D02*
X0093721Y0085752D01*
X0095320Y0084154D02*
X0089705Y0084154D01*
X0089705Y0082555D02*
X0099236Y0082555D01*
X0099236Y0080957D02*
X0089705Y0080957D01*
X0089705Y0079358D02*
X0099236Y0079358D01*
X0099236Y0077760D02*
X0089705Y0077760D01*
X0089705Y0076161D02*
X0098055Y0076161D01*
X0098055Y0074563D02*
X0089705Y0074563D01*
X0089705Y0072964D02*
X0098636Y0072964D01*
X0103799Y0069767D02*
X0089705Y0069767D01*
X0089705Y0068169D02*
X0103567Y0068169D01*
X0103567Y0066570D02*
X0089705Y0066570D01*
X0089705Y0064972D02*
X0103567Y0064972D01*
X0103567Y0063373D02*
X0099559Y0063373D01*
X0099911Y0063227D02*
X0098220Y0063928D01*
X0096390Y0063928D01*
X0094700Y0063227D01*
X0093406Y0061933D01*
X0092705Y0060243D01*
X0092705Y0052413D01*
X0093406Y0050722D01*
X0094700Y0049428D01*
X0096390Y0048728D01*
X0098220Y0048728D01*
X0099911Y0049428D01*
X0101205Y0050722D01*
X0101905Y0052413D01*
X0101905Y0060243D01*
X0101205Y0061933D01*
X0099911Y0063227D01*
X0101271Y0061775D02*
X0103567Y0061775D01*
X0103567Y0060176D02*
X0101905Y0060176D01*
X0101905Y0058578D02*
X0103567Y0058578D01*
X0103567Y0056979D02*
X0101905Y0056979D01*
X0101905Y0055381D02*
X0103567Y0055381D01*
X0103567Y0053782D02*
X0101905Y0053782D01*
X0101810Y0052184D02*
X0103567Y0052184D01*
X0103567Y0050585D02*
X0101068Y0050585D01*
X0098846Y0048987D02*
X0103567Y0048987D01*
X0103567Y0047388D02*
X0089705Y0047388D01*
X0089705Y0045790D02*
X0103567Y0045790D01*
X0103567Y0044191D02*
X0100246Y0044191D01*
X0100101Y0044230D02*
X0098080Y0044230D01*
X0098080Y0040449D01*
X0101664Y0040449D01*
X0101664Y0042667D01*
X0101542Y0043125D01*
X0101305Y0043535D01*
X0100970Y0043870D01*
X0100559Y0044107D01*
X0100101Y0044230D01*
X0098080Y0044191D02*
X0097712Y0044191D01*
X0097712Y0042593D02*
X0098080Y0042593D01*
X0098080Y0040994D02*
X0097712Y0040994D01*
X0097712Y0039396D02*
X0098080Y0039396D01*
X0098080Y0037797D02*
X0097712Y0037797D01*
X0101647Y0037797D02*
X0103567Y0037797D01*
X0103567Y0036199D02*
X0070238Y0036199D01*
X0068639Y0037797D02*
X0087634Y0037797D01*
X0087634Y0039396D02*
X0067041Y0039396D01*
X0065442Y0040994D02*
X0087079Y0040994D01*
X0085481Y0042593D02*
X0063844Y0042593D01*
X0062245Y0044191D02*
X0084905Y0044191D01*
X0084905Y0045790D02*
X0060647Y0045790D01*
X0059048Y0047388D02*
X0084905Y0047388D01*
X0084905Y0048987D02*
X0079359Y0048987D01*
X0079148Y0048879D02*
X0079821Y0049222D01*
X0080432Y0049666D01*
X0080966Y0050201D01*
X0081411Y0050812D01*
X0081754Y0051485D01*
X0081987Y0052204D01*
X0082105Y0052950D01*
X0082105Y0056128D01*
X0077505Y0056128D01*
X0077505Y0056528D01*
X0082105Y0056528D01*
X0082105Y0059705D01*
X0081987Y0060452D01*
X0081754Y0061170D01*
X0081411Y0061843D01*
X0080966Y0062455D01*
X0080432Y0062989D01*
X0079821Y0063433D01*
X0079253Y0063722D01*
X0081201Y0065671D01*
X0081201Y0068638D01*
X0079104Y0070735D01*
X0076137Y0070735D01*
X0074956Y0069554D01*
X0064362Y0069554D01*
X0059031Y0074885D01*
X0059031Y0077997D01*
X0056337Y0080691D01*
X0052526Y0080691D01*
X0049831Y0077997D01*
X0049831Y0074186D01*
X0052526Y0071491D01*
X0055637Y0071491D01*
X0062009Y0065120D01*
X0062891Y0064754D01*
X0074956Y0064754D01*
X0075819Y0063892D01*
X0075463Y0063776D01*
X0074789Y0063433D01*
X0074178Y0062989D01*
X0073644Y0062455D01*
X0073200Y0061843D01*
X0072857Y0061170D01*
X0072623Y0060452D01*
X0072505Y0059705D01*
X0072505Y0056528D01*
X0077105Y0056528D01*
X0077105Y0056128D01*
X0072505Y0056128D01*
X0072505Y0052950D01*
X0072623Y0052204D01*
X0072857Y0051485D01*
X0073200Y0050812D01*
X0073644Y0050201D01*
X0074178Y0049666D01*
X0074789Y0049222D01*
X0075463Y0048879D01*
X0076181Y0048646D01*
X0076927Y0048528D01*
X0077105Y0048528D01*
X0077105Y0056127D01*
X0077505Y0056127D01*
X0077505Y0048528D01*
X0077683Y0048528D01*
X0078429Y0048646D01*
X0079148Y0048879D01*
X0077505Y0048987D02*
X0077105Y0048987D01*
X0077105Y0050585D02*
X0077505Y0050585D01*
X0077505Y0052184D02*
X0077105Y0052184D01*
X0077105Y0053782D02*
X0077505Y0053782D01*
X0077505Y0055381D02*
X0077105Y0055381D01*
X0072505Y0055381D02*
X0051056Y0055381D01*
X0049457Y0056979D02*
X0072505Y0056979D01*
X0072505Y0058578D02*
X0047859Y0058578D01*
X0046260Y0060176D02*
X0072580Y0060176D01*
X0073165Y0061775D02*
X0044981Y0061775D01*
X0044981Y0063373D02*
X0074707Y0063373D01*
X0077620Y0067154D02*
X0063368Y0067154D01*
X0054431Y0076091D01*
X0051193Y0079358D02*
X0044981Y0079358D01*
X0044981Y0077760D02*
X0049831Y0077760D01*
X0049831Y0076161D02*
X0044981Y0076161D01*
X0044981Y0074563D02*
X0049831Y0074563D01*
X0051053Y0072964D02*
X0044981Y0072964D01*
X0044981Y0071366D02*
X0055763Y0071366D01*
X0057361Y0069767D02*
X0044981Y0069767D01*
X0044981Y0068169D02*
X0058960Y0068169D01*
X0060558Y0066570D02*
X0044981Y0066570D01*
X0044981Y0064972D02*
X0062366Y0064972D01*
X0064149Y0069767D02*
X0075169Y0069767D01*
X0074631Y0071291D02*
X0076419Y0071291D01*
X0079231Y0074103D01*
X0079231Y0075891D01*
X0074631Y0075891D01*
X0074631Y0071291D01*
X0074631Y0071366D02*
X0074231Y0071366D01*
X0074231Y0071291D02*
X0074231Y0075891D01*
X0074631Y0075891D01*
X0074631Y0076291D01*
X0079231Y0076291D01*
X0079231Y0078080D01*
X0076419Y0080891D01*
X0074631Y0080891D01*
X0074631Y0076291D01*
X0074231Y0076291D01*
X0074231Y0075891D01*
X0069631Y0075891D01*
X0069631Y0074103D01*
X0072443Y0071291D01*
X0074231Y0071291D01*
X0074231Y0072964D02*
X0074631Y0072964D01*
X0074631Y0074563D02*
X0074231Y0074563D01*
X0074231Y0076161D02*
X0069031Y0076161D01*
X0069631Y0076291D02*
X0074231Y0076291D01*
X0074231Y0080891D01*
X0072443Y0080891D01*
X0069631Y0078080D01*
X0069631Y0076291D01*
X0069631Y0077760D02*
X0069031Y0077760D01*
X0069031Y0077997D02*
X0066337Y0080691D01*
X0062526Y0080691D01*
X0059831Y0077997D01*
X0059831Y0074186D01*
X0062526Y0071491D01*
X0066337Y0071491D01*
X0069031Y0074186D01*
X0069031Y0077997D01*
X0067670Y0079358D02*
X0070910Y0079358D01*
X0071462Y0082555D02*
X0067401Y0082555D01*
X0066337Y0081491D02*
X0069031Y0084186D01*
X0069031Y0087997D01*
X0066337Y0090691D01*
X0062526Y0090691D01*
X0059831Y0087997D01*
X0059831Y0084186D01*
X0062526Y0081491D01*
X0066337Y0081491D01*
X0068999Y0084154D02*
X0069863Y0084154D01*
X0069831Y0085752D02*
X0069031Y0085752D01*
X0069031Y0087351D02*
X0069778Y0087351D01*
X0068179Y0088949D02*
X0068079Y0088949D01*
X0066581Y0090548D02*
X0066480Y0090548D01*
X0064982Y0092146D02*
X0046180Y0092146D01*
X0047778Y0090548D02*
X0053170Y0090548D01*
X0055692Y0090548D02*
X0062382Y0090548D01*
X0060784Y0088949D02*
X0058079Y0088949D01*
X0058888Y0087351D02*
X0059831Y0087351D01*
X0059831Y0085752D02*
X0059031Y0085752D01*
X0058608Y0084154D02*
X0059863Y0084154D01*
X0061462Y0082555D02*
X0057401Y0082555D01*
X0057670Y0079358D02*
X0061193Y0079358D01*
X0059831Y0077760D02*
X0059031Y0077760D01*
X0059031Y0076161D02*
X0059831Y0076161D01*
X0059831Y0074563D02*
X0059354Y0074563D01*
X0060952Y0072964D02*
X0061053Y0072964D01*
X0062551Y0071366D02*
X0072369Y0071366D01*
X0070770Y0072964D02*
X0067810Y0072964D01*
X0069031Y0074563D02*
X0069631Y0074563D01*
X0074631Y0076161D02*
X0084905Y0076161D01*
X0084905Y0074563D02*
X0079231Y0074563D01*
X0078092Y0072964D02*
X0084905Y0072964D01*
X0084905Y0071366D02*
X0076494Y0071366D01*
X0080072Y0069767D02*
X0084905Y0069767D01*
X0084905Y0068169D02*
X0081201Y0068169D01*
X0081201Y0066570D02*
X0084905Y0066570D01*
X0084905Y0064972D02*
X0080502Y0064972D01*
X0079903Y0063373D02*
X0084905Y0063373D01*
X0083340Y0061775D02*
X0081446Y0061775D01*
X0082031Y0060176D02*
X0082705Y0060176D01*
X0082705Y0058578D02*
X0082105Y0058578D01*
X0082105Y0056979D02*
X0082705Y0056979D01*
X0082705Y0055381D02*
X0082105Y0055381D01*
X0082105Y0053782D02*
X0082705Y0053782D01*
X0082800Y0052184D02*
X0081981Y0052184D01*
X0081246Y0050585D02*
X0083542Y0050585D01*
X0089705Y0048987D02*
X0095765Y0048987D01*
X0093542Y0050585D02*
X0091068Y0050585D01*
X0091810Y0052184D02*
X0092800Y0052184D01*
X0092705Y0053782D02*
X0091905Y0053782D01*
X0091905Y0055381D02*
X0092705Y0055381D01*
X0092705Y0056979D02*
X0091905Y0056979D01*
X0091905Y0058578D02*
X0092705Y0058578D01*
X0092705Y0060176D02*
X0091905Y0060176D01*
X0091271Y0061775D02*
X0093340Y0061775D01*
X0095052Y0063373D02*
X0089705Y0063373D01*
X0087305Y0056328D02*
X0087305Y0084241D01*
X0079195Y0092351D01*
X0082794Y0092146D02*
X0094512Y0092146D01*
X0094512Y0090548D02*
X0084392Y0090548D01*
X0085991Y0088949D02*
X0093330Y0088949D01*
X0094512Y0093745D02*
X0082776Y0093745D01*
X0085283Y0095343D02*
X0094512Y0095343D01*
X0094512Y0096942D02*
X0085926Y0096942D01*
X0085926Y0098540D02*
X0094512Y0098540D01*
X0094512Y0100139D02*
X0086018Y0100139D01*
X0087558Y0101737D02*
X0094512Y0101737D01*
X0094512Y0103336D02*
X0089043Y0103336D01*
X0090527Y0104935D02*
X0094512Y0104935D01*
X0094512Y0106533D02*
X0091950Y0106533D01*
X0092225Y0108132D02*
X0094512Y0108132D01*
X0094512Y0109730D02*
X0092225Y0109730D01*
X0092225Y0111329D02*
X0094512Y0111329D01*
X0094512Y0112927D02*
X0092929Y0112927D01*
X0099312Y0112927D02*
X0106135Y0112927D01*
X0106135Y0111329D02*
X0099312Y0111329D01*
X0099312Y0109730D02*
X0110704Y0109730D01*
X0112253Y0109730D02*
X0123346Y0109730D01*
X0123346Y0108132D02*
X0116822Y0108132D01*
X0116822Y0111236D02*
X0112253Y0111236D01*
X0112253Y0115411D01*
X0115259Y0115411D01*
X0115717Y0115288D01*
X0116127Y0115051D01*
X0116462Y0114716D01*
X0116699Y0114306D01*
X0116822Y0113848D01*
X0116822Y0111236D01*
X0116822Y0111329D02*
X0123346Y0111329D01*
X0123346Y0112927D02*
X0116822Y0112927D01*
X0116572Y0114526D02*
X0123346Y0114526D01*
X0123346Y0116124D02*
X0099312Y0116124D01*
X0099312Y0114526D02*
X0106385Y0114526D01*
X0106335Y0117723D02*
X0099312Y0117723D01*
X0099312Y0119321D02*
X0106335Y0119321D01*
X0106335Y0120920D02*
X0099312Y0120920D01*
X0099312Y0122518D02*
X0106335Y0122518D01*
X0106335Y0124117D02*
X0099312Y0124117D01*
X0099225Y0125715D02*
X0106753Y0125715D01*
X0106759Y0127314D02*
X0108505Y0127314D01*
X0108304Y0128912D02*
X0106979Y0128912D01*
X0106979Y0130511D02*
X0108304Y0130511D01*
X0108304Y0132109D02*
X0102805Y0132109D01*
X0102030Y0131721D02*
X0102030Y0136052D01*
X0098486Y0139595D01*
X0098121Y0136905D02*
X0095910Y0136905D01*
X0094311Y0138503D02*
X0110260Y0138503D01*
X0110260Y0136905D02*
X0105938Y0136905D01*
X0106979Y0135306D02*
X0108304Y0135306D01*
X0108304Y0133708D02*
X0106979Y0133708D01*
X0102804Y0133708D02*
X0101255Y0133708D01*
X0101255Y0135306D02*
X0102804Y0135306D01*
X0102804Y0136905D02*
X0101255Y0136905D01*
X0101255Y0130511D02*
X0102804Y0130511D01*
X0102804Y0128912D02*
X0101255Y0128912D01*
X0101255Y0127314D02*
X0102804Y0127314D01*
X0111478Y0130146D02*
X0111478Y0121485D01*
X0116622Y0120920D02*
X0121546Y0120920D01*
X0120102Y0122518D02*
X0116622Y0122518D01*
X0116622Y0124117D02*
X0120102Y0124117D01*
X0118765Y0125715D02*
X0116204Y0125715D01*
X0117601Y0127314D02*
X0118146Y0127314D01*
X0114628Y0130146D02*
X0123289Y0130146D01*
X0123289Y0124241D01*
X0123683Y0123847D01*
X0125820Y0120920D02*
X0137366Y0120920D01*
X0137366Y0122518D02*
X0127264Y0122518D01*
X0127264Y0124117D02*
X0137366Y0124117D01*
X0139766Y0125363D02*
X0139766Y0118020D01*
X0142166Y0120920D02*
X0148461Y0120920D01*
X0148461Y0122518D02*
X0142166Y0122518D01*
X0142166Y0124117D02*
X0148461Y0124117D01*
X0148461Y0125715D02*
X0142166Y0125715D01*
X0141209Y0127314D02*
X0148461Y0127314D01*
X0149320Y0128912D02*
X0140519Y0128912D01*
X0140519Y0130511D02*
X0149834Y0130511D01*
X0149834Y0132109D02*
X0140519Y0132109D01*
X0140377Y0133708D02*
X0149834Y0133708D01*
X0148622Y0135306D02*
X0117803Y0135306D01*
X0118641Y0136580D02*
X0119051Y0136343D01*
X0119509Y0136220D01*
X0122515Y0136220D01*
X0122515Y0140395D01*
X0124064Y0140395D01*
X0124064Y0136220D01*
X0127070Y0136220D01*
X0127528Y0136343D01*
X0127938Y0136580D01*
X0128273Y0136915D01*
X0128510Y0137326D01*
X0128633Y0137783D01*
X0128633Y0140395D01*
X0124064Y0140395D01*
X0124064Y0141945D01*
X0122515Y0141945D01*
X0122515Y0146120D01*
X0119509Y0146120D01*
X0119051Y0145997D01*
X0118641Y0145760D01*
X0118306Y0145425D01*
X0118069Y0145014D01*
X0117946Y0144557D01*
X0117946Y0141945D01*
X0122515Y0141945D01*
X0122515Y0140395D01*
X0117946Y0140395D01*
X0117946Y0137783D01*
X0118069Y0137326D01*
X0118306Y0136915D01*
X0118641Y0136580D01*
X0118316Y0136905D02*
X0115060Y0136905D01*
X0115060Y0138503D02*
X0117946Y0138503D01*
X0117946Y0140102D02*
X0115081Y0140102D01*
X0116241Y0141700D02*
X0122515Y0141700D01*
X0124064Y0141700D02*
X0130033Y0141700D01*
X0130033Y0141551D02*
X0130033Y0144163D01*
X0130155Y0144621D01*
X0130392Y0145031D01*
X0130728Y0145366D01*
X0131138Y0145603D01*
X0131596Y0145726D01*
X0134601Y0145726D01*
X0134601Y0141551D01*
X0134601Y0140002D01*
X0130033Y0140002D01*
X0130033Y0137390D01*
X0130155Y0136932D01*
X0130392Y0136522D01*
X0130728Y0136186D01*
X0131138Y0135949D01*
X0131596Y0135827D01*
X0134601Y0135827D01*
X0134601Y0140001D01*
X0136151Y0140001D01*
X0136151Y0135827D01*
X0139156Y0135827D01*
X0139614Y0135949D01*
X0140025Y0136186D01*
X0140360Y0136522D01*
X0140597Y0136932D01*
X0140719Y0137390D01*
X0140719Y0140002D01*
X0136151Y0140002D01*
X0136151Y0141551D01*
X0140719Y0141551D01*
X0140719Y0144163D01*
X0140597Y0144621D01*
X0140360Y0145031D01*
X0140025Y0145366D01*
X0139614Y0145603D01*
X0139156Y0145726D01*
X0136151Y0145726D01*
X0136151Y0141551D01*
X0134601Y0141551D01*
X0130033Y0141551D01*
X0128633Y0141945D02*
X0128633Y0144557D01*
X0128510Y0145014D01*
X0128273Y0145425D01*
X0127938Y0145760D01*
X0127528Y0145997D01*
X0127070Y0146120D01*
X0124064Y0146120D01*
X0124064Y0141945D01*
X0128633Y0141945D01*
X0128633Y0143299D02*
X0130033Y0143299D01*
X0130315Y0144897D02*
X0128542Y0144897D01*
X0124064Y0144897D02*
X0122515Y0144897D01*
X0122515Y0143299D02*
X0124064Y0143299D01*
X0124064Y0140102D02*
X0122515Y0140102D01*
X0122515Y0138503D02*
X0124064Y0138503D01*
X0124064Y0136905D02*
X0122515Y0136905D01*
X0118146Y0133708D02*
X0117803Y0133708D01*
X0114628Y0130146D02*
X0113053Y0131721D01*
X0111478Y0130146D01*
X0113053Y0131721D02*
X0112660Y0132115D01*
X0112660Y0142745D01*
X0110238Y0140102D02*
X0092713Y0140102D01*
X0093356Y0141700D02*
X0109078Y0141700D01*
X0109078Y0143299D02*
X0094193Y0143299D01*
X0094193Y0144897D02*
X0109748Y0144897D01*
X0115572Y0144897D02*
X0118037Y0144897D01*
X0117946Y0143299D02*
X0116241Y0143299D01*
X0128633Y0140102D02*
X0134601Y0140102D01*
X0136151Y0140102D02*
X0146726Y0140102D01*
X0146697Y0138503D02*
X0140719Y0138503D01*
X0140581Y0136905D02*
X0147240Y0136905D01*
X0147389Y0141700D02*
X0140719Y0141700D01*
X0140719Y0143299D02*
X0149409Y0143299D01*
X0150357Y0144554D02*
X0148678Y0145250D01*
X0147393Y0146535D01*
X0146697Y0148214D01*
X0146697Y0150032D01*
X0146816Y0150318D01*
X0132096Y0165038D01*
X0130859Y0166276D01*
X0130189Y0167893D01*
X0130189Y0171354D01*
X0128852Y0172691D01*
X0127821Y0175178D01*
X0127821Y0177871D01*
X0128852Y0180358D01*
X0130755Y0182261D01*
X0133243Y0183292D01*
X0135935Y0183292D01*
X0138422Y0182261D01*
X0140326Y0180358D01*
X0141356Y0177871D01*
X0141356Y0175178D01*
X0140326Y0172691D01*
X0138989Y0171354D01*
X0138989Y0170591D01*
X0155888Y0153691D01*
X0158112Y0153691D01*
X0159791Y0152996D01*
X0161076Y0151711D01*
X0161771Y0150032D01*
X0161771Y0148214D01*
X0161076Y0146535D01*
X0159791Y0145250D01*
X0158112Y0144554D01*
X0150357Y0144554D01*
X0149529Y0144897D02*
X0140437Y0144897D01*
X0136151Y0144897D02*
X0134601Y0144897D01*
X0134601Y0143299D02*
X0136151Y0143299D01*
X0136151Y0141700D02*
X0134601Y0141700D01*
X0134601Y0138503D02*
X0136151Y0138503D01*
X0136151Y0136905D02*
X0134601Y0136905D01*
X0130171Y0136905D02*
X0128263Y0136905D01*
X0128633Y0138503D02*
X0130033Y0138503D01*
X0130375Y0133708D02*
X0128433Y0133708D01*
X0123683Y0129753D02*
X0135376Y0129753D01*
X0139766Y0125363D01*
X0144122Y0119321D02*
X0148781Y0119321D01*
X0149111Y0117723D02*
X0144122Y0117723D01*
X0144010Y0116124D02*
X0149111Y0116124D01*
X0148445Y0114526D02*
X0144236Y0114526D01*
X0144572Y0112927D02*
X0146847Y0112927D01*
X0145248Y0111329D02*
X0144572Y0111329D01*
X0150451Y0104935D02*
X0154514Y0104935D01*
X0153309Y0106533D02*
X0152049Y0106533D01*
X0148852Y0103336D02*
X0172033Y0103336D01*
X0172033Y0101737D02*
X0147254Y0101737D01*
X0145655Y0100139D02*
X0172033Y0100139D01*
X0172033Y0098540D02*
X0144057Y0098540D01*
X0144043Y0096942D02*
X0172033Y0096942D01*
X0172033Y0095343D02*
X0143941Y0095343D01*
X0143678Y0093745D02*
X0172033Y0093745D01*
X0172033Y0092146D02*
X0150212Y0092146D01*
X0151280Y0090548D02*
X0172033Y0090548D01*
X0172033Y0088949D02*
X0151280Y0088949D01*
X0150519Y0087351D02*
X0172033Y0087351D01*
X0172033Y0085752D02*
X0141109Y0085752D01*
X0140992Y0084154D02*
X0172033Y0084154D01*
X0172033Y0082555D02*
X0140992Y0082555D01*
X0140992Y0080957D02*
X0172033Y0080957D01*
X0172033Y0060176D02*
X0170560Y0060176D01*
X0171639Y0058578D02*
X0172033Y0058578D01*
X0172033Y0053782D02*
X0171745Y0053782D01*
X0172033Y0052184D02*
X0170816Y0052184D01*
X0172033Y0050585D02*
X0168709Y0050585D01*
X0172033Y0048987D02*
X0162346Y0048987D01*
X0162346Y0047388D02*
X0172033Y0047388D01*
X0172033Y0045790D02*
X0161690Y0045790D01*
X0160461Y0044191D02*
X0172033Y0044191D01*
X0172033Y0042593D02*
X0157630Y0042593D01*
X0162008Y0050585D02*
X0163618Y0050585D01*
X0161511Y0052184D02*
X0161230Y0052184D01*
X0160582Y0053782D02*
X0159486Y0053782D01*
X0140968Y0053782D02*
X0120283Y0053782D01*
X0120283Y0054140D02*
X0120600Y0054456D01*
X0120965Y0055338D01*
X0120965Y0058191D01*
X0122146Y0059372D01*
X0122146Y0062338D01*
X0120048Y0064436D01*
X0117082Y0064436D01*
X0114984Y0062338D01*
X0114984Y0059372D01*
X0116165Y0058191D01*
X0116165Y0057140D01*
X0110934Y0057140D01*
X0109997Y0056203D01*
X0109997Y0048578D01*
X0110934Y0047641D01*
X0119346Y0047641D01*
X0120283Y0048578D01*
X0120283Y0054140D01*
X0120965Y0055381D02*
X0140968Y0055381D01*
X0140968Y0056979D02*
X0120965Y0056979D01*
X0121352Y0058578D02*
X0140968Y0058578D01*
X0140968Y0060176D02*
X0122146Y0060176D01*
X0122146Y0061775D02*
X0126723Y0061775D01*
X0125125Y0063373D02*
X0121111Y0063373D01*
X0123918Y0064972D02*
X0108367Y0064972D01*
X0108367Y0066570D02*
X0123918Y0066570D01*
X0123918Y0068169D02*
X0108800Y0068169D01*
X0105967Y0068729D02*
X0105967Y0034083D01*
X0102423Y0030540D01*
X0072502Y0030540D01*
X0042581Y0060461D01*
X0042581Y0082115D01*
X0040181Y0079358D02*
X0033601Y0079358D01*
X0033601Y0077760D02*
X0040181Y0077760D01*
X0040181Y0076161D02*
X0033601Y0076161D01*
X0033601Y0074563D02*
X0040181Y0074563D01*
X0040181Y0072964D02*
X0033601Y0072964D01*
X0033601Y0071366D02*
X0040181Y0071366D01*
X0040181Y0069767D02*
X0033601Y0069767D01*
X0033601Y0068169D02*
X0040181Y0068169D01*
X0040181Y0066570D02*
X0033601Y0066570D01*
X0033601Y0064972D02*
X0040181Y0064972D01*
X0040181Y0063373D02*
X0033601Y0063373D01*
X0033601Y0061775D02*
X0040181Y0061775D01*
X0040181Y0060176D02*
X0033601Y0060176D01*
X0033601Y0058578D02*
X0041070Y0058578D01*
X0042669Y0056979D02*
X0033601Y0056979D01*
X0033601Y0055381D02*
X0044267Y0055381D01*
X0045866Y0053782D02*
X0033601Y0053782D01*
X0033601Y0052184D02*
X0047465Y0052184D01*
X0049063Y0050585D02*
X0033601Y0050585D01*
X0033601Y0048987D02*
X0050662Y0048987D01*
X0052260Y0047388D02*
X0033601Y0047388D01*
X0033601Y0045790D02*
X0053859Y0045790D01*
X0055457Y0044191D02*
X0033601Y0044191D01*
X0033601Y0042593D02*
X0057056Y0042593D01*
X0058654Y0040994D02*
X0033601Y0040994D01*
X0033601Y0039396D02*
X0060253Y0039396D01*
X0061851Y0037797D02*
X0033601Y0037797D01*
X0033601Y0036199D02*
X0063450Y0036199D01*
X0065048Y0034600D02*
X0033601Y0034600D01*
X0033601Y0033002D02*
X0066647Y0033002D01*
X0068245Y0031403D02*
X0033601Y0031403D01*
X0033601Y0029804D02*
X0069844Y0029804D01*
X0071866Y0028206D02*
X0033601Y0028206D01*
X0033601Y0026607D02*
X0140908Y0026607D01*
X0140253Y0025953D02*
X0140253Y0024050D01*
X0145803Y0024050D01*
X0145803Y0022700D01*
X0140253Y0022700D01*
X0140253Y0020796D01*
X0143900Y0017150D01*
X0145803Y0017150D01*
X0145803Y0022700D01*
X0147153Y0022700D01*
X0147153Y0017150D01*
X0149057Y0017150D01*
X0152703Y0020796D01*
X0152703Y0022700D01*
X0147154Y0022700D01*
X0147154Y0024050D01*
X0152703Y0024050D01*
X0152703Y0025953D01*
X0149057Y0029600D01*
X0147153Y0029600D01*
X0147153Y0024050D01*
X0145803Y0024050D01*
X0145803Y0029600D01*
X0143900Y0029600D01*
X0140253Y0025953D01*
X0140253Y0025009D02*
X0033601Y0025009D01*
X0033601Y0023410D02*
X0145803Y0023410D01*
X0147154Y0023410D02*
X0172033Y0023410D01*
X0172033Y0021812D02*
X0152703Y0021812D01*
X0152121Y0020213D02*
X0172033Y0020213D01*
X0172033Y0018615D02*
X0150522Y0018615D01*
X0147153Y0018615D02*
X0145803Y0018615D01*
X0145803Y0020213D02*
X0147153Y0020213D01*
X0147153Y0021812D02*
X0145803Y0021812D01*
X0145803Y0025009D02*
X0147153Y0025009D01*
X0147153Y0026607D02*
X0145803Y0026607D01*
X0145803Y0028206D02*
X0147153Y0028206D01*
X0150451Y0028206D02*
X0172033Y0028206D01*
X0172033Y0029804D02*
X0105082Y0029804D01*
X0106680Y0031403D02*
X0125993Y0031403D01*
X0124394Y0033002D02*
X0108116Y0033002D01*
X0108367Y0034600D02*
X0122796Y0034600D01*
X0122737Y0036199D02*
X0108367Y0036199D01*
X0108367Y0037797D02*
X0109846Y0037797D01*
X0109797Y0037980D02*
X0109919Y0037523D01*
X0110156Y0037112D01*
X0110491Y0036777D01*
X0110902Y0036540D01*
X0111360Y0036417D01*
X0114365Y0036417D01*
X0114365Y0040592D01*
X0115915Y0040592D01*
X0115915Y0042142D01*
X0114365Y0042142D01*
X0114365Y0046317D01*
X0111360Y0046317D01*
X0110902Y0046194D01*
X0110491Y0045957D01*
X0110156Y0045622D01*
X0109919Y0045211D01*
X0109797Y0044754D01*
X0109797Y0042142D01*
X0114365Y0042142D01*
X0114365Y0040592D01*
X0109797Y0040592D01*
X0109797Y0037980D01*
X0109797Y0039396D02*
X0108367Y0039396D01*
X0108367Y0040994D02*
X0114365Y0040994D01*
X0115915Y0040994D02*
X0124081Y0040994D01*
X0122737Y0039396D02*
X0120483Y0039396D01*
X0120483Y0040592D02*
X0120483Y0037980D01*
X0120361Y0037523D01*
X0120124Y0037112D01*
X0119788Y0036777D01*
X0119378Y0036540D01*
X0118920Y0036417D01*
X0115915Y0036417D01*
X0115915Y0040592D01*
X0120483Y0040592D01*
X0120483Y0042142D02*
X0120483Y0044754D01*
X0120361Y0045211D01*
X0120124Y0045622D01*
X0119788Y0045957D01*
X0119378Y0046194D01*
X0118920Y0046317D01*
X0115915Y0046317D01*
X0115915Y0042142D01*
X0120483Y0042142D01*
X0120483Y0042593D02*
X0125680Y0042593D01*
X0122737Y0037797D02*
X0120434Y0037797D01*
X0115915Y0037797D02*
X0114365Y0037797D01*
X0114365Y0039396D02*
X0115915Y0039396D01*
X0115915Y0042593D02*
X0114365Y0042593D01*
X0114365Y0044191D02*
X0115915Y0044191D01*
X0115915Y0045790D02*
X0114365Y0045790D01*
X0110324Y0045790D02*
X0108367Y0045790D01*
X0108367Y0047388D02*
X0140968Y0047388D01*
X0140968Y0045790D02*
X0119956Y0045790D01*
X0120483Y0044191D02*
X0139846Y0044191D01*
X0138247Y0042593D02*
X0131844Y0042593D01*
X0133443Y0040994D02*
X0136648Y0040994D01*
X0140968Y0048987D02*
X0120283Y0048987D01*
X0120283Y0050585D02*
X0140968Y0050585D01*
X0140968Y0052184D02*
X0120283Y0052184D01*
X0118565Y0055816D02*
X0115140Y0052391D01*
X0118565Y0055816D02*
X0118565Y0060855D01*
X0116019Y0063373D02*
X0108367Y0063373D01*
X0108367Y0061775D02*
X0114984Y0061775D01*
X0114984Y0060176D02*
X0108367Y0060176D01*
X0108367Y0058578D02*
X0115778Y0058578D01*
X0110773Y0056979D02*
X0108367Y0056979D01*
X0108367Y0055381D02*
X0109997Y0055381D01*
X0109997Y0053782D02*
X0108367Y0053782D01*
X0108367Y0052184D02*
X0109997Y0052184D01*
X0109997Y0050585D02*
X0108367Y0050585D01*
X0108367Y0048987D02*
X0109997Y0048987D01*
X0109797Y0044191D02*
X0108367Y0044191D01*
X0108367Y0042593D02*
X0109797Y0042593D01*
X0103567Y0042593D02*
X0101664Y0042593D01*
X0101664Y0040994D02*
X0103567Y0040994D01*
X0103567Y0039396D02*
X0101664Y0039396D01*
X0103089Y0034600D02*
X0071836Y0034600D01*
X0073435Y0033002D02*
X0101491Y0033002D01*
X0103060Y0028206D02*
X0142506Y0028206D01*
X0140253Y0021812D02*
X0033601Y0021812D01*
X0033601Y0020213D02*
X0140836Y0020213D01*
X0142435Y0018615D02*
X0033601Y0018615D01*
X0033601Y0017016D02*
X0172033Y0017016D01*
X0172033Y0015418D02*
X0033601Y0015418D01*
X0033601Y0013819D02*
X0172033Y0013819D01*
X0172033Y0012221D02*
X0033601Y0012221D01*
X0033601Y0010622D02*
X0172033Y0010622D01*
X0172033Y0025009D02*
X0152703Y0025009D01*
X0152049Y0026607D02*
X0172033Y0026607D01*
X0172033Y0031403D02*
X0131531Y0031403D01*
X0133163Y0061775D02*
X0140968Y0061775D01*
X0140212Y0063373D02*
X0134761Y0063373D01*
X0135968Y0064972D02*
X0138613Y0064972D01*
X0137015Y0066570D02*
X0135968Y0066570D01*
X0124114Y0069767D02*
X0122260Y0069767D01*
X0122330Y0071366D02*
X0124250Y0071366D01*
X0121203Y0079280D02*
X0127975Y0079280D01*
X0132530Y0087351D02*
X0135653Y0087351D01*
X0136178Y0088949D02*
X0132530Y0088949D01*
X0126162Y0101737D02*
X0113235Y0101737D01*
X0109644Y0104935D02*
X0099312Y0104935D01*
X0099312Y0106533D02*
X0106306Y0106533D01*
X0106135Y0108132D02*
X0099312Y0108132D01*
X0099312Y0103336D02*
X0108046Y0103336D01*
X0106447Y0101737D02*
X0099312Y0101737D01*
X0099312Y0100139D02*
X0104849Y0100139D01*
X0103250Y0098540D02*
X0099312Y0098540D01*
X0099312Y0096942D02*
X0101652Y0096942D01*
X0100053Y0095343D02*
X0099312Y0095343D01*
X0099236Y0084154D02*
X0098503Y0084154D01*
X0105217Y0076161D02*
X0109168Y0076161D01*
X0108406Y0074563D02*
X0105217Y0074563D01*
X0104636Y0072964D02*
X0106808Y0072964D01*
X0105209Y0071366D02*
X0089705Y0071366D01*
X0084905Y0077760D02*
X0079231Y0077760D01*
X0077952Y0079358D02*
X0084905Y0079358D01*
X0084905Y0080957D02*
X0046162Y0080957D01*
X0046162Y0082555D02*
X0051462Y0082555D01*
X0050255Y0084154D02*
X0045606Y0084154D01*
X0046116Y0085752D02*
X0033601Y0085752D01*
X0033601Y0084154D02*
X0039555Y0084154D01*
X0039000Y0082555D02*
X0033601Y0082555D01*
X0033601Y0080957D02*
X0039000Y0080957D01*
X0044187Y0087351D02*
X0033601Y0087351D01*
X0033601Y0088949D02*
X0042588Y0088949D01*
X0040990Y0090548D02*
X0033601Y0090548D01*
X0033601Y0092146D02*
X0039391Y0092146D01*
X0039000Y0093745D02*
X0033601Y0093745D01*
X0033601Y0095343D02*
X0039000Y0095343D01*
X0039000Y0096942D02*
X0033601Y0096942D01*
X0033601Y0098540D02*
X0039000Y0098540D01*
X0039000Y0100139D02*
X0033601Y0100139D01*
X0033601Y0101737D02*
X0039000Y0101737D01*
X0039000Y0103336D02*
X0033601Y0103336D01*
X0033601Y0104935D02*
X0039000Y0104935D01*
X0039000Y0106533D02*
X0033601Y0106533D01*
X0033601Y0108132D02*
X0039000Y0108132D01*
X0039000Y0109730D02*
X0033601Y0109730D01*
X0033601Y0111329D02*
X0037830Y0111329D01*
X0037819Y0112927D02*
X0033601Y0112927D01*
X0033601Y0114526D02*
X0038037Y0114526D01*
X0039636Y0116124D02*
X0033601Y0116124D01*
X0033601Y0117723D02*
X0040193Y0117723D01*
X0038595Y0119321D02*
X0033601Y0119321D01*
X0033601Y0120920D02*
X0036996Y0120920D01*
X0035646Y0122518D02*
X0033601Y0122518D01*
X0033601Y0124117D02*
X0035456Y0124117D01*
X0035456Y0125715D02*
X0033601Y0125715D01*
X0033601Y0127314D02*
X0035456Y0127314D01*
X0035456Y0128912D02*
X0033601Y0128912D01*
X0033601Y0130511D02*
X0035456Y0130511D01*
X0035456Y0132109D02*
X0033601Y0132109D01*
X0033601Y0133708D02*
X0035456Y0133708D01*
X0035456Y0135306D02*
X0033601Y0135306D01*
X0033601Y0136905D02*
X0035456Y0136905D01*
X0035456Y0138503D02*
X0033601Y0138503D01*
X0033601Y0140102D02*
X0035456Y0140102D01*
X0035456Y0141700D02*
X0033601Y0141700D01*
X0033601Y0143299D02*
X0035456Y0143299D01*
X0035456Y0144897D02*
X0033601Y0144897D01*
X0033601Y0146496D02*
X0035456Y0146496D01*
X0035456Y0148094D02*
X0033601Y0148094D01*
X0033601Y0149693D02*
X0035456Y0149693D01*
X0035456Y0151291D02*
X0033601Y0151291D01*
X0033601Y0152890D02*
X0035456Y0152890D01*
X0035456Y0154488D02*
X0033601Y0154488D01*
X0033601Y0156087D02*
X0035456Y0156087D01*
X0036411Y0157685D02*
X0033601Y0157685D01*
X0033601Y0159284D02*
X0038009Y0159284D01*
X0039608Y0160882D02*
X0033601Y0160882D01*
X0037856Y0155737D02*
X0037856Y0123454D01*
X0051242Y0110068D01*
X0057935Y0110068D01*
X0070534Y0097469D01*
X0082345Y0097469D01*
X0080801Y0087351D02*
X0079031Y0087351D01*
X0079031Y0085752D02*
X0082400Y0085752D01*
X0083998Y0084154D02*
X0078999Y0084154D01*
X0077401Y0082555D02*
X0084905Y0082555D01*
X0074631Y0079358D02*
X0074231Y0079358D01*
X0074231Y0077760D02*
X0074631Y0077760D01*
X0074431Y0086091D02*
X0061478Y0099044D01*
X0046912Y0099044D01*
X0043949Y0096942D02*
X0043800Y0096942D01*
X0043800Y0095343D02*
X0061785Y0095343D01*
X0063384Y0093745D02*
X0044581Y0093745D01*
X0041400Y0093532D02*
X0046912Y0088020D01*
X0052502Y0088020D01*
X0054431Y0086091D01*
X0041400Y0093532D02*
X0041400Y0112824D01*
X0050455Y0123060D02*
X0048486Y0125028D01*
X0047383Y0127169D02*
X0047203Y0127348D01*
X0046966Y0127759D01*
X0046844Y0128217D01*
X0046844Y0131222D01*
X0051019Y0131222D01*
X0051019Y0132772D01*
X0046844Y0132772D01*
X0046844Y0134069D01*
X0046820Y0134046D01*
X0043853Y0134046D01*
X0043012Y0134887D01*
X0043012Y0128385D01*
X0046086Y0125311D01*
X0046086Y0125506D01*
X0046452Y0126388D01*
X0047127Y0127063D01*
X0047383Y0127169D01*
X0047238Y0127314D02*
X0044083Y0127314D01*
X0043012Y0128912D02*
X0046844Y0128912D01*
X0046844Y0130511D02*
X0043012Y0130511D01*
X0043012Y0132109D02*
X0051019Y0132109D01*
X0052568Y0132109D02*
X0058067Y0132109D01*
X0056743Y0132772D02*
X0056743Y0135777D01*
X0056620Y0136235D01*
X0056383Y0136645D01*
X0056048Y0136981D01*
X0055638Y0137217D01*
X0055180Y0137340D01*
X0052568Y0137340D01*
X0052568Y0132772D01*
X0056743Y0132772D01*
X0056743Y0133708D02*
X0058067Y0133708D01*
X0058067Y0135306D02*
X0056743Y0135306D01*
X0056124Y0136905D02*
X0058769Y0136905D01*
X0062817Y0131997D02*
X0062817Y0127627D01*
X0066597Y0123847D01*
X0064460Y0120920D02*
X0061253Y0120920D01*
X0061910Y0122518D02*
X0063015Y0122518D01*
X0062933Y0124117D02*
X0061910Y0124117D01*
X0061335Y0125715D02*
X0060738Y0125715D01*
X0058545Y0127314D02*
X0056349Y0127314D01*
X0056743Y0128912D02*
X0058067Y0128912D01*
X0058067Y0130511D02*
X0056743Y0130511D01*
X0052568Y0130511D02*
X0051019Y0130511D01*
X0051019Y0128912D02*
X0052568Y0128912D01*
X0052568Y0127314D02*
X0051019Y0127314D01*
X0051194Y0125715D02*
X0055920Y0125715D01*
X0058329Y0123060D02*
X0050455Y0123060D01*
X0046173Y0125715D02*
X0045682Y0125715D01*
X0046844Y0133708D02*
X0043012Y0133708D01*
X0045337Y0137627D02*
X0052423Y0144713D01*
X0065809Y0144713D01*
X0072896Y0152194D01*
X0077227Y0152194D01*
X0074667Y0155343D02*
X0079982Y0159871D01*
X0083748Y0159284D02*
X0088028Y0159284D01*
X0088028Y0160882D02*
X0083748Y0160882D01*
X0083748Y0162481D02*
X0088028Y0162481D01*
X0088028Y0164079D02*
X0083748Y0164079D01*
X0083748Y0165678D02*
X0088028Y0165678D01*
X0088028Y0167276D02*
X0083748Y0167276D01*
X0083748Y0168875D02*
X0088028Y0168875D01*
X0089017Y0170473D02*
X0082382Y0170473D01*
X0082174Y0172072D02*
X0087419Y0172072D01*
X0085820Y0173670D02*
X0080797Y0173670D01*
X0081461Y0175269D02*
X0084173Y0175269D01*
X0083361Y0176868D02*
X0082273Y0176868D01*
X0082417Y0178466D02*
X0083217Y0178466D01*
X0083217Y0180065D02*
X0082417Y0180065D01*
X0082417Y0181663D02*
X0083217Y0181663D01*
X0083217Y0183262D02*
X0082417Y0183262D01*
X0082417Y0184860D02*
X0083217Y0184860D01*
X0083802Y0186459D02*
X0081832Y0186459D01*
X0080358Y0188057D02*
X0085276Y0188057D01*
X0090358Y0188057D02*
X0095276Y0188057D01*
X0095211Y0188030D02*
X0093917Y0186736D01*
X0093217Y0185046D01*
X0093217Y0177216D01*
X0093917Y0175525D01*
X0095211Y0174231D01*
X0096902Y0173531D01*
X0098732Y0173531D01*
X0100423Y0174231D01*
X0101717Y0175525D01*
X0102417Y0177216D01*
X0102417Y0178731D01*
X0103217Y0178731D01*
X0103217Y0177216D01*
X0103917Y0175525D01*
X0105211Y0174231D01*
X0106902Y0173531D01*
X0108732Y0173531D01*
X0110423Y0174231D01*
X0111717Y0175525D01*
X0112417Y0177216D01*
X0112417Y0185046D01*
X0111717Y0186736D01*
X0110423Y0188030D01*
X0108732Y0188731D01*
X0106902Y0188731D01*
X0105211Y0188030D01*
X0103917Y0186736D01*
X0103217Y0185046D01*
X0103217Y0183531D01*
X0102417Y0183531D01*
X0102417Y0185046D01*
X0101717Y0186736D01*
X0100423Y0188030D01*
X0098732Y0188731D01*
X0096902Y0188731D01*
X0095211Y0188030D01*
X0093802Y0186459D02*
X0091832Y0186459D01*
X0092417Y0184860D02*
X0093217Y0184860D01*
X0093217Y0183262D02*
X0092417Y0183262D01*
X0092417Y0181663D02*
X0093217Y0181663D01*
X0093217Y0180065D02*
X0092417Y0180065D01*
X0092417Y0178466D02*
X0093217Y0178466D01*
X0093361Y0176868D02*
X0092273Y0176868D01*
X0091461Y0175269D02*
X0094173Y0175269D01*
X0092608Y0173670D02*
X0096565Y0173670D01*
X0099070Y0173670D02*
X0106565Y0173670D01*
X0109070Y0173670D02*
X0116011Y0173670D01*
X0115974Y0173682D02*
X0116693Y0173449D01*
X0117439Y0173331D01*
X0117617Y0173331D01*
X0117617Y0180931D01*
X0113017Y0180931D01*
X0113017Y0177753D01*
X0113135Y0177007D01*
X0113369Y0176288D01*
X0113712Y0175615D01*
X0114156Y0175004D01*
X0114690Y0174469D01*
X0115301Y0174025D01*
X0115974Y0173682D01*
X0117617Y0173670D02*
X0118017Y0173670D01*
X0118017Y0173331D02*
X0118195Y0173331D01*
X0118941Y0173449D01*
X0119660Y0173682D01*
X0120333Y0174025D01*
X0120944Y0174469D01*
X0121478Y0175004D01*
X0121922Y0175615D01*
X0122265Y0176288D01*
X0122499Y0177007D01*
X0122617Y0177753D01*
X0122617Y0180931D01*
X0118017Y0180931D01*
X0118017Y0181331D01*
X0117617Y0181331D01*
X0117617Y0188931D01*
X0117439Y0188931D01*
X0116693Y0188812D01*
X0115974Y0188579D01*
X0115301Y0188236D01*
X0114690Y0187792D01*
X0114156Y0187258D01*
X0113712Y0186646D01*
X0113369Y0185973D01*
X0113135Y0185255D01*
X0113017Y0184508D01*
X0113017Y0181331D01*
X0117617Y0181331D01*
X0117617Y0180931D01*
X0118017Y0180931D01*
X0118017Y0173331D01*
X0119623Y0173670D02*
X0128446Y0173670D01*
X0127821Y0175269D02*
X0121671Y0175269D01*
X0122454Y0176868D02*
X0127821Y0176868D01*
X0128068Y0178466D02*
X0122617Y0178466D01*
X0122617Y0180065D02*
X0128730Y0180065D01*
X0130157Y0181663D02*
X0122617Y0181663D01*
X0122617Y0181331D02*
X0122617Y0184508D01*
X0122499Y0185255D01*
X0122265Y0185973D01*
X0121922Y0186646D01*
X0121478Y0187258D01*
X0120944Y0187792D01*
X0120333Y0188236D01*
X0119660Y0188579D01*
X0118941Y0188812D01*
X0118195Y0188931D01*
X0118017Y0188931D01*
X0118017Y0181331D01*
X0122617Y0181331D01*
X0122617Y0183262D02*
X0133170Y0183262D01*
X0136008Y0183262D02*
X0172033Y0183262D01*
X0172033Y0184860D02*
X0122561Y0184860D01*
X0122018Y0186459D02*
X0172033Y0186459D01*
X0172033Y0188057D02*
X0120579Y0188057D01*
X0118017Y0188057D02*
X0117617Y0188057D01*
X0117617Y0186459D02*
X0118017Y0186459D01*
X0118017Y0184860D02*
X0117617Y0184860D01*
X0117617Y0183262D02*
X0118017Y0183262D01*
X0118017Y0181663D02*
X0117617Y0181663D01*
X0117617Y0180065D02*
X0118017Y0180065D01*
X0118017Y0178466D02*
X0117617Y0178466D01*
X0117617Y0176868D02*
X0118017Y0176868D01*
X0118017Y0175269D02*
X0117617Y0175269D01*
X0113963Y0175269D02*
X0111461Y0175269D01*
X0112273Y0176868D02*
X0113180Y0176868D01*
X0113017Y0178466D02*
X0112417Y0178466D01*
X0112417Y0180065D02*
X0113017Y0180065D01*
X0113017Y0181663D02*
X0112417Y0181663D01*
X0112417Y0183262D02*
X0113017Y0183262D01*
X0113073Y0184860D02*
X0112417Y0184860D01*
X0111832Y0186459D02*
X0113616Y0186459D01*
X0115055Y0188057D02*
X0110358Y0188057D01*
X0105276Y0188057D02*
X0100358Y0188057D01*
X0101832Y0186459D02*
X0103802Y0186459D01*
X0103217Y0184860D02*
X0102417Y0184860D01*
X0097817Y0181131D02*
X0107817Y0181131D01*
X0103217Y0178466D02*
X0102417Y0178466D01*
X0102273Y0176868D02*
X0103361Y0176868D01*
X0104173Y0175269D02*
X0101461Y0175269D01*
X0095559Y0168875D02*
X0130189Y0168875D01*
X0130189Y0170473D02*
X0094193Y0170473D01*
X0093985Y0172072D02*
X0129471Y0172072D01*
X0130444Y0167276D02*
X0095559Y0167276D01*
X0095559Y0165678D02*
X0131457Y0165678D01*
X0133055Y0164079D02*
X0095559Y0164079D01*
X0095559Y0162481D02*
X0134654Y0162481D01*
X0136252Y0160882D02*
X0095559Y0160882D01*
X0095559Y0159284D02*
X0137851Y0159284D01*
X0139449Y0157685D02*
X0095559Y0157685D01*
X0094193Y0156087D02*
X0141048Y0156087D01*
X0142646Y0154488D02*
X0094193Y0154488D01*
X0094193Y0152890D02*
X0144245Y0152890D01*
X0145843Y0151291D02*
X0094193Y0151291D01*
X0094193Y0149693D02*
X0146697Y0149693D01*
X0146747Y0148094D02*
X0094193Y0148094D01*
X0094193Y0146496D02*
X0147432Y0146496D01*
X0155091Y0154488D02*
X0172033Y0154488D01*
X0172033Y0152890D02*
X0159897Y0152890D01*
X0161250Y0151291D02*
X0172033Y0151291D01*
X0172033Y0149693D02*
X0161771Y0149693D01*
X0161722Y0148094D02*
X0172033Y0148094D01*
X0172033Y0146496D02*
X0161037Y0146496D01*
X0158940Y0144897D02*
X0172033Y0144897D01*
X0172033Y0143299D02*
X0159059Y0143299D01*
X0161080Y0141700D02*
X0172033Y0141700D01*
X0172033Y0140102D02*
X0161742Y0140102D01*
X0161771Y0138503D02*
X0172033Y0138503D01*
X0172033Y0136905D02*
X0161229Y0136905D01*
X0159847Y0135306D02*
X0172033Y0135306D01*
X0172033Y0133708D02*
X0158634Y0133708D01*
X0158634Y0132109D02*
X0172033Y0132109D01*
X0172033Y0130511D02*
X0158634Y0130511D01*
X0158634Y0128912D02*
X0160120Y0128912D01*
X0159980Y0128831D02*
X0159644Y0128496D01*
X0159407Y0128085D01*
X0159285Y0127628D01*
X0159285Y0124622D01*
X0163459Y0124622D01*
X0163459Y0123072D01*
X0159285Y0123072D01*
X0159285Y0120067D01*
X0159407Y0119609D01*
X0159644Y0119199D01*
X0159980Y0118864D01*
X0160390Y0118627D01*
X0160848Y0118504D01*
X0163460Y0118504D01*
X0163460Y0123072D01*
X0165009Y0123072D01*
X0165009Y0118504D01*
X0167621Y0118504D01*
X0168079Y0118627D01*
X0168489Y0118864D01*
X0168824Y0119199D01*
X0169061Y0119609D01*
X0169184Y0120067D01*
X0169184Y0123072D01*
X0165009Y0123072D01*
X0165009Y0124622D01*
X0163460Y0124622D01*
X0163460Y0129191D01*
X0160848Y0129191D01*
X0160390Y0129068D01*
X0159980Y0128831D01*
X0159285Y0127314D02*
X0158634Y0127314D01*
X0158634Y0125715D02*
X0159285Y0125715D01*
X0158634Y0124117D02*
X0163459Y0124117D01*
X0165009Y0124117D02*
X0172033Y0124117D01*
X0172033Y0125715D02*
X0169184Y0125715D01*
X0169184Y0124622D02*
X0169184Y0127628D01*
X0169061Y0128085D01*
X0168824Y0128496D01*
X0168489Y0128831D01*
X0168079Y0129068D01*
X0167621Y0129191D01*
X0165009Y0129191D01*
X0165009Y0124622D01*
X0169184Y0124622D01*
X0169184Y0122518D02*
X0172033Y0122518D01*
X0172033Y0120920D02*
X0169184Y0120920D01*
X0168895Y0119321D02*
X0172033Y0119321D01*
X0172033Y0117723D02*
X0157311Y0117723D01*
X0157311Y0116124D02*
X0172033Y0116124D01*
X0172033Y0114526D02*
X0157311Y0114526D01*
X0158512Y0112927D02*
X0172033Y0112927D01*
X0172033Y0111329D02*
X0160110Y0111329D01*
X0161304Y0109730D02*
X0172033Y0109730D01*
X0172033Y0108132D02*
X0161641Y0108132D01*
X0161494Y0106533D02*
X0172033Y0106533D01*
X0172033Y0104935D02*
X0160569Y0104935D01*
X0159574Y0119321D02*
X0157640Y0119321D01*
X0157960Y0120920D02*
X0159285Y0120920D01*
X0159285Y0122518D02*
X0158022Y0122518D01*
X0154234Y0124871D02*
X0153211Y0123847D01*
X0163460Y0122518D02*
X0165009Y0122518D01*
X0165009Y0120920D02*
X0163460Y0120920D01*
X0163460Y0119321D02*
X0165009Y0119321D01*
X0165009Y0125715D02*
X0163460Y0125715D01*
X0163460Y0127314D02*
X0165009Y0127314D01*
X0165009Y0128912D02*
X0163460Y0128912D01*
X0168348Y0128912D02*
X0172033Y0128912D01*
X0172033Y0127314D02*
X0169184Y0127314D01*
X0172033Y0156087D02*
X0153493Y0156087D01*
X0151894Y0157685D02*
X0172033Y0157685D01*
X0172033Y0159284D02*
X0150296Y0159284D01*
X0148697Y0160882D02*
X0172033Y0160882D01*
X0172033Y0162481D02*
X0147099Y0162481D01*
X0145500Y0164079D02*
X0172033Y0164079D01*
X0172033Y0165678D02*
X0143902Y0165678D01*
X0142303Y0167276D02*
X0172033Y0167276D01*
X0172033Y0168875D02*
X0140705Y0168875D01*
X0139106Y0170473D02*
X0156676Y0170473D01*
X0156752Y0170449D02*
X0157534Y0170325D01*
X0157534Y0175848D01*
X0152011Y0175848D01*
X0152135Y0175066D01*
X0152438Y0174133D01*
X0152883Y0173260D01*
X0153459Y0172466D01*
X0154153Y0171773D01*
X0154946Y0171197D01*
X0155820Y0170752D01*
X0156752Y0170449D01*
X0157534Y0170473D02*
X0158887Y0170473D01*
X0158887Y0170325D02*
X0159669Y0170449D01*
X0160602Y0170752D01*
X0161476Y0171197D01*
X0162269Y0171773D01*
X0162962Y0172466D01*
X0163538Y0173260D01*
X0163984Y0174133D01*
X0164286Y0175066D01*
X0164410Y0175848D01*
X0158887Y0175848D01*
X0158887Y0170325D01*
X0159746Y0170473D02*
X0172033Y0170473D01*
X0172033Y0172072D02*
X0162568Y0172072D01*
X0163748Y0173670D02*
X0172033Y0173670D01*
X0172033Y0175269D02*
X0164319Y0175269D01*
X0164410Y0177201D02*
X0164286Y0177983D01*
X0163984Y0178916D01*
X0163538Y0179789D01*
X0162962Y0180582D01*
X0162269Y0181276D01*
X0161476Y0181852D01*
X0160602Y0182297D01*
X0159669Y0182600D01*
X0158887Y0182724D01*
X0158887Y0177201D01*
X0157534Y0177201D01*
X0157534Y0175848D01*
X0158887Y0175848D01*
X0158887Y0177201D01*
X0164410Y0177201D01*
X0164130Y0178466D02*
X0172033Y0178466D01*
X0172033Y0176868D02*
X0158887Y0176868D01*
X0157534Y0176868D02*
X0141356Y0176868D01*
X0141356Y0175269D02*
X0152103Y0175269D01*
X0152674Y0173670D02*
X0140731Y0173670D01*
X0139707Y0172072D02*
X0153854Y0172072D01*
X0157534Y0172072D02*
X0158887Y0172072D01*
X0158887Y0173670D02*
X0157534Y0173670D01*
X0157534Y0175269D02*
X0158887Y0175269D01*
X0157534Y0177201D02*
X0152011Y0177201D01*
X0152135Y0177983D01*
X0152438Y0178916D01*
X0152883Y0179789D01*
X0153459Y0180582D01*
X0154153Y0181276D01*
X0154946Y0181852D01*
X0155820Y0182297D01*
X0156752Y0182600D01*
X0157534Y0182724D01*
X0157534Y0177201D01*
X0157534Y0178466D02*
X0158887Y0178466D01*
X0158887Y0180065D02*
X0157534Y0180065D01*
X0157534Y0181663D02*
X0158887Y0181663D01*
X0161736Y0181663D02*
X0172033Y0181663D01*
X0172033Y0180065D02*
X0163338Y0180065D01*
X0154686Y0181663D02*
X0139020Y0181663D01*
X0140447Y0180065D02*
X0153083Y0180065D01*
X0152292Y0178466D02*
X0141109Y0178466D01*
X0149576Y0189656D02*
X0172033Y0189656D01*
X0172033Y0191254D02*
X0151357Y0191254D01*
X0123289Y0130146D02*
X0123683Y0129753D01*
X0128433Y0127314D02*
X0130233Y0127314D01*
X0130458Y0125715D02*
X0127814Y0125715D01*
X0124189Y0117723D02*
X0116622Y0117723D01*
X0116622Y0119321D02*
X0135410Y0119321D01*
X0133959Y0117723D02*
X0133959Y0117723D01*
X0133959Y0116124D02*
X0133959Y0116124D01*
X0133959Y0114526D02*
X0133959Y0114526D01*
X0133959Y0112927D02*
X0133959Y0112927D01*
X0133959Y0112115D02*
X0133959Y0112115D01*
X0112253Y0111329D02*
X0110704Y0111329D01*
X0110704Y0112927D02*
X0112253Y0112927D01*
X0112253Y0114526D02*
X0110704Y0114526D01*
X0085494Y0137233D02*
X0069746Y0137233D01*
X0067550Y0140102D02*
X0051206Y0140102D01*
X0052804Y0141700D02*
X0086567Y0141700D01*
X0086806Y0141939D02*
X0086806Y0141939D01*
X0087481Y0142614D02*
X0087481Y0142614D01*
X0088166Y0143299D02*
X0067789Y0143299D01*
X0069289Y0144897D02*
X0089393Y0144897D01*
X0089393Y0146496D02*
X0070804Y0146496D01*
X0072318Y0148094D02*
X0089393Y0148094D01*
X0089393Y0149693D02*
X0079790Y0149693D01*
X0080808Y0151291D02*
X0089393Y0151291D01*
X0089393Y0152890D02*
X0080808Y0152890D01*
X0079996Y0154488D02*
X0089393Y0154488D01*
X0089393Y0156087D02*
X0079241Y0156087D01*
X0083748Y0157685D02*
X0088028Y0157685D01*
X0091793Y0159871D02*
X0091793Y0143532D01*
X0088841Y0140580D01*
X0084969Y0140102D02*
X0071942Y0140102D01*
X0066165Y0138503D02*
X0049607Y0138503D01*
X0051019Y0136905D02*
X0052568Y0136905D01*
X0052568Y0135306D02*
X0051019Y0135306D01*
X0051019Y0133708D02*
X0052568Y0133708D01*
X0073833Y0149693D02*
X0074663Y0149693D01*
X0082212Y0133708D02*
X0083537Y0133708D01*
X0083537Y0132109D02*
X0082212Y0132109D01*
X0082212Y0128912D02*
X0083537Y0128912D01*
X0083537Y0127314D02*
X0082212Y0127314D01*
X0082066Y0125715D02*
X0083725Y0125715D01*
X0072147Y0104935D02*
X0066462Y0104935D01*
X0068061Y0103336D02*
X0070889Y0103336D01*
X0070889Y0101737D02*
X0069659Y0101737D01*
X0071258Y0100139D02*
X0071461Y0100139D01*
X0105967Y0068729D02*
X0109904Y0072666D01*
X0112069Y0072666D01*
X0087305Y0056328D02*
X0087305Y0044162D01*
X0091203Y0040265D01*
X0090670Y0044191D02*
X0095545Y0044191D01*
X0075252Y0048987D02*
X0057450Y0048987D01*
X0055851Y0050585D02*
X0073365Y0050585D01*
X0072630Y0052184D02*
X0054253Y0052184D01*
X0052654Y0053782D02*
X0072505Y0053782D01*
X0079982Y0166564D02*
X0079982Y0171091D01*
X0077817Y0173257D01*
X0077817Y0181131D01*
X0074173Y0175269D02*
X0071461Y0175269D01*
X0072273Y0176868D02*
X0073361Y0176868D01*
X0073217Y0178466D02*
X0072417Y0178466D01*
X0072417Y0180065D02*
X0073217Y0180065D01*
X0073217Y0181663D02*
X0072417Y0181663D01*
X0072417Y0183262D02*
X0073217Y0183262D01*
X0073217Y0184860D02*
X0072417Y0184860D01*
X0071832Y0186459D02*
X0073802Y0186459D01*
X0075276Y0188057D02*
X0070358Y0188057D01*
X0070217Y0173670D02*
X0075417Y0173670D01*
X0075710Y0172072D02*
X0070363Y0172072D01*
X0070571Y0170473D02*
X0077206Y0170473D01*
X0076217Y0168875D02*
X0071937Y0168875D01*
X0087817Y0175068D02*
X0091793Y0171091D01*
X0091793Y0166564D01*
X0087817Y0175068D02*
X0087817Y0181131D01*
D28*
X0134589Y0176524D02*
X0134589Y0168769D01*
X0154234Y0149123D01*
X0154234Y0139123D02*
X0154234Y0124871D01*
D29*
X0153211Y0123847D02*
X0153211Y0113493D01*
X0152679Y0112961D01*
X0157541Y0108099D01*
X0157541Y0107706D01*
X0152679Y0112961D02*
X0139943Y0100225D01*
X0139943Y0106032D01*
X0139766Y0106209D01*
X0139943Y0100225D02*
X0139943Y0096406D01*
D30*
X0139943Y0089713D02*
X0136636Y0083020D01*
X0139943Y0089713D02*
X0147699Y0089595D01*
M02*
