G75*
%MOIN*%
%OFA0B0*%
%FSLAX25Y25*%
%IPPOS*%
%LPD*%
%AMOC8*
5,1,8,0,0,1.08239X$1,22.5*
%
%ADD10C,0.00000*%
%ADD11C,0.00400*%
%ADD12C,0.00600*%
%ADD13C,0.00500*%
D10*
X0028801Y0005737D02*
X0028801Y0206524D01*
X0176833Y0206131D01*
X0176833Y0005343D01*
X0028801Y0005737D01*
D11*
X0089176Y0042965D02*
X0092245Y0042965D01*
X0090711Y0042965D02*
X0090711Y0047568D01*
X0092245Y0046034D01*
X0093780Y0046801D02*
X0093780Y0045267D01*
X0094547Y0044499D01*
X0096849Y0044499D01*
X0095315Y0044499D02*
X0093780Y0042965D01*
X0096849Y0042965D02*
X0096849Y0047568D01*
X0094547Y0047568D01*
X0093780Y0046801D01*
X0105340Y0048242D02*
X0105340Y0049777D01*
X0106107Y0050544D01*
X0106875Y0050544D01*
X0107642Y0049777D01*
X0107642Y0047475D01*
X0106107Y0047475D01*
X0105340Y0048242D01*
X0107642Y0047475D02*
X0109176Y0049009D01*
X0109944Y0050544D01*
X0109176Y0045940D02*
X0109944Y0045173D01*
X0109944Y0043638D01*
X0109176Y0042871D01*
X0106107Y0042871D01*
X0105340Y0043638D01*
X0105340Y0045173D01*
X0106107Y0045940D01*
X0110810Y0075366D02*
X0110042Y0076133D01*
X0110042Y0079203D01*
X0110810Y0079970D01*
X0112344Y0079970D01*
X0113112Y0079203D01*
X0113112Y0078435D01*
X0112344Y0077668D01*
X0110042Y0077668D01*
X0112052Y0077969D02*
X0116656Y0077969D01*
X0116656Y0080271D01*
X0115889Y0081039D01*
X0114354Y0081039D01*
X0113587Y0080271D01*
X0113587Y0077969D01*
X0114646Y0077668D02*
X0115414Y0076901D01*
X0117715Y0076901D01*
X0116181Y0076901D02*
X0114646Y0075366D01*
X0113112Y0076133D02*
X0112344Y0075366D01*
X0110810Y0075366D01*
X0114646Y0077668D02*
X0114646Y0079203D01*
X0115414Y0079970D01*
X0117715Y0079970D01*
X0117715Y0075366D01*
X0113587Y0079504D02*
X0112052Y0081039D01*
X0112820Y0082573D02*
X0113587Y0082573D01*
X0114354Y0083341D01*
X0114354Y0084875D01*
X0113587Y0085643D01*
X0112820Y0085643D01*
X0112052Y0084875D01*
X0112052Y0083341D01*
X0112820Y0082573D01*
X0114354Y0083341D02*
X0115122Y0082573D01*
X0115889Y0082573D01*
X0116656Y0083341D01*
X0116656Y0084875D01*
X0115889Y0085643D01*
X0115122Y0085643D01*
X0114354Y0084875D01*
X0132643Y0086552D02*
X0137247Y0086552D01*
X0137247Y0088854D01*
X0136480Y0089621D01*
X0134945Y0089621D01*
X0134178Y0088854D01*
X0134178Y0086552D01*
X0134178Y0088087D02*
X0132643Y0089621D01*
X0132643Y0091156D02*
X0133410Y0091156D01*
X0136480Y0094225D01*
X0137247Y0094225D01*
X0137247Y0091156D01*
X0142505Y0089334D02*
X0142505Y0087800D01*
X0143273Y0087032D01*
X0144807Y0087032D01*
X0145575Y0087800D01*
X0145575Y0089334D01*
X0144807Y0090102D01*
X0144040Y0090102D01*
X0144040Y0087032D01*
X0144807Y0085498D02*
X0142505Y0085498D01*
X0142505Y0083963D02*
X0144807Y0083963D01*
X0145575Y0084730D01*
X0144807Y0085498D01*
X0144807Y0083963D02*
X0145575Y0083196D01*
X0145575Y0082428D01*
X0142505Y0082428D01*
X0142505Y0080894D02*
X0142505Y0078592D01*
X0143273Y0077824D01*
X0144040Y0078592D01*
X0144040Y0080894D01*
X0144807Y0080894D02*
X0142505Y0080894D01*
X0144807Y0080894D02*
X0145575Y0080126D01*
X0145575Y0078592D01*
X0144807Y0076290D02*
X0142505Y0076290D01*
X0144807Y0076290D02*
X0145575Y0075522D01*
X0145575Y0073220D01*
X0142505Y0073220D01*
X0123763Y0108503D02*
X0119926Y0108503D01*
X0119159Y0109270D01*
X0119159Y0110805D01*
X0119926Y0111572D01*
X0123763Y0111572D01*
X0122995Y0113107D02*
X0122228Y0113107D01*
X0121461Y0113874D01*
X0121461Y0115409D01*
X0120693Y0116176D01*
X0119926Y0116176D01*
X0119159Y0115409D01*
X0119159Y0113874D01*
X0119926Y0113107D01*
X0118391Y0114642D02*
X0124530Y0114642D01*
X0123763Y0115409D02*
X0122995Y0116176D01*
X0123763Y0115409D02*
X0123763Y0113874D01*
X0122995Y0113107D01*
X0122995Y0117711D02*
X0123763Y0118478D01*
X0123763Y0120013D01*
X0122995Y0120780D01*
X0122228Y0120780D01*
X0119159Y0117711D01*
X0119159Y0120780D01*
X0106282Y0118871D02*
X0106282Y0117337D01*
X0105515Y0116569D01*
X0105515Y0115035D02*
X0106282Y0114267D01*
X0106282Y0112733D01*
X0105515Y0111965D01*
X0102446Y0111965D01*
X0101678Y0112733D01*
X0101678Y0114267D01*
X0102446Y0115035D01*
X0101678Y0116569D02*
X0104748Y0119639D01*
X0105515Y0119639D01*
X0106282Y0118871D01*
X0101678Y0119639D02*
X0101678Y0116569D01*
X0086982Y0121035D02*
X0086215Y0120268D01*
X0084680Y0120268D01*
X0083913Y0121035D01*
X0082378Y0121035D02*
X0081611Y0120268D01*
X0080077Y0120268D01*
X0079309Y0121035D01*
X0079309Y0124104D01*
X0080077Y0124872D01*
X0081611Y0124872D01*
X0082378Y0124104D01*
X0082378Y0123337D01*
X0081611Y0122570D01*
X0079309Y0122570D01*
X0083913Y0124104D02*
X0084680Y0124872D01*
X0086215Y0124872D01*
X0086982Y0124104D01*
X0086982Y0121035D01*
X0104668Y0137689D02*
X0105436Y0136921D01*
X0106970Y0136921D01*
X0107738Y0137689D01*
X0109272Y0137689D02*
X0110040Y0136921D01*
X0111574Y0136921D01*
X0112341Y0137689D01*
X0112341Y0140758D01*
X0111574Y0141525D01*
X0110040Y0141525D01*
X0109272Y0140758D01*
X0107738Y0140758D02*
X0106970Y0141525D01*
X0105436Y0141525D01*
X0104668Y0140758D01*
X0104668Y0139991D01*
X0105436Y0139223D01*
X0104668Y0138456D01*
X0104668Y0137689D01*
X0105436Y0139223D02*
X0106203Y0139223D01*
X0089097Y0156709D02*
X0089097Y0159011D01*
X0088330Y0159779D01*
X0086795Y0159779D01*
X0086028Y0159011D01*
X0086028Y0156709D01*
X0084493Y0156709D02*
X0089097Y0156709D01*
X0086028Y0158244D02*
X0084493Y0159779D01*
X0085261Y0161313D02*
X0084493Y0162081D01*
X0084493Y0163615D01*
X0085261Y0164383D01*
X0086028Y0164383D01*
X0086795Y0163615D01*
X0086795Y0161313D01*
X0085261Y0161313D01*
X0086795Y0161313D02*
X0088330Y0162848D01*
X0089097Y0164383D01*
X0077286Y0164383D02*
X0077286Y0161313D01*
X0074984Y0161313D01*
X0075752Y0162848D01*
X0075752Y0163615D01*
X0074984Y0164383D01*
X0073450Y0164383D01*
X0072682Y0163615D01*
X0072682Y0162081D01*
X0073450Y0161313D01*
X0072682Y0159779D02*
X0074217Y0158244D01*
X0074217Y0159011D02*
X0074217Y0156709D01*
X0072682Y0156709D02*
X0077286Y0156709D01*
X0077286Y0159011D01*
X0076519Y0159779D01*
X0074984Y0159779D01*
X0074217Y0159011D01*
X0065475Y0159011D02*
X0065475Y0156709D01*
X0060871Y0156709D01*
X0062406Y0156709D02*
X0062406Y0159011D01*
X0063173Y0159779D01*
X0064708Y0159779D01*
X0065475Y0159011D01*
X0063173Y0161313D02*
X0063173Y0164383D01*
X0060871Y0163615D02*
X0065475Y0163615D01*
X0063173Y0161313D01*
X0060871Y0159779D02*
X0062406Y0158244D01*
X0053664Y0159011D02*
X0053664Y0156709D01*
X0049060Y0156709D01*
X0050595Y0156709D02*
X0050595Y0159011D01*
X0051362Y0159779D01*
X0052897Y0159779D01*
X0053664Y0159011D01*
X0052897Y0161313D02*
X0053664Y0162081D01*
X0053664Y0163615D01*
X0052897Y0164383D01*
X0052130Y0164383D01*
X0051362Y0163615D01*
X0050595Y0164383D01*
X0049828Y0164383D01*
X0049060Y0163615D01*
X0049060Y0162081D01*
X0049828Y0161313D01*
X0049060Y0159779D02*
X0050595Y0158244D01*
X0051362Y0162848D02*
X0051362Y0163615D01*
X0055199Y0141801D02*
X0054432Y0141033D01*
X0054432Y0140266D01*
X0055199Y0139499D01*
X0056734Y0139499D01*
X0057501Y0140266D01*
X0057501Y0141033D01*
X0056734Y0141801D01*
X0055199Y0141801D01*
X0055199Y0139499D02*
X0054432Y0138731D01*
X0054432Y0137964D01*
X0055199Y0137197D01*
X0056734Y0137197D01*
X0057501Y0137964D01*
X0057501Y0138731D01*
X0056734Y0139499D01*
X0059036Y0141033D02*
X0059803Y0141801D01*
X0061338Y0141801D01*
X0062105Y0141033D01*
X0062105Y0137964D01*
X0061338Y0137197D01*
X0059803Y0137197D01*
X0059036Y0137964D01*
X0128489Y0137764D02*
X0133093Y0137764D01*
X0130791Y0135462D01*
X0130791Y0138531D01*
X0129257Y0133928D02*
X0128489Y0133160D01*
X0128489Y0131626D01*
X0129257Y0130858D01*
X0132326Y0130858D01*
X0133093Y0131626D01*
X0133093Y0133160D01*
X0132326Y0133928D01*
X0140576Y0132767D02*
X0140576Y0131232D01*
X0141343Y0130465D01*
X0144413Y0130465D01*
X0145180Y0131232D01*
X0145180Y0132767D01*
X0144413Y0133534D01*
X0145180Y0135068D02*
X0142878Y0135068D01*
X0143645Y0136603D01*
X0143645Y0137370D01*
X0142878Y0138138D01*
X0141343Y0138138D01*
X0140576Y0137370D01*
X0140576Y0135836D01*
X0141343Y0135068D01*
X0141343Y0133534D02*
X0140576Y0132767D01*
X0145180Y0135068D02*
X0145180Y0138138D01*
X0156592Y0118651D02*
X0156592Y0114047D01*
X0158127Y0114047D02*
X0155057Y0114047D01*
X0158127Y0117117D02*
X0156592Y0118651D01*
X0159661Y0117884D02*
X0160428Y0118651D01*
X0161963Y0118651D01*
X0162730Y0117884D01*
X0162730Y0114815D01*
X0161963Y0114047D01*
X0160428Y0114047D01*
X0159661Y0114815D01*
D12*
X0169478Y0071847D02*
X0123478Y0071847D01*
X0123478Y0041347D01*
X0123478Y0032847D02*
X0123478Y0015847D01*
X0134478Y0015847D01*
X0158478Y0015847D01*
X0169478Y0015847D01*
X0169478Y0051347D01*
X0169478Y0058847D02*
X0169478Y0071847D01*
X0158478Y0015847D02*
X0158478Y0003847D01*
X0134478Y0003847D01*
X0136478Y0001847D01*
X0156478Y0001847D01*
X0158478Y0003847D01*
X0134478Y0003847D02*
X0134478Y0015847D01*
X0076931Y0071091D02*
X0079431Y0073591D01*
X0079431Y0088591D01*
X0076931Y0091091D01*
X0071931Y0091091D01*
X0069431Y0088591D01*
X0066931Y0091091D01*
X0061931Y0091091D01*
X0059431Y0088591D01*
X0056931Y0091091D01*
X0051931Y0091091D01*
X0049431Y0088591D01*
X0049431Y0073591D01*
X0051931Y0071091D01*
X0056931Y0071091D01*
X0059431Y0073591D01*
X0061931Y0071091D01*
X0066931Y0071091D01*
X0069431Y0073591D01*
X0071931Y0071091D01*
X0076931Y0071091D01*
D13*
X0081783Y0074592D02*
X0081783Y0075343D01*
X0082533Y0076093D01*
X0084785Y0076093D01*
X0084785Y0074592D01*
X0084035Y0073841D01*
X0082533Y0073841D01*
X0081783Y0074592D01*
X0084785Y0076093D02*
X0083284Y0077595D01*
X0081783Y0078345D01*
X0062993Y0068595D02*
X0062993Y0067844D01*
X0062242Y0067093D01*
X0060741Y0067093D01*
X0059990Y0066343D01*
X0059990Y0065592D01*
X0060741Y0064841D01*
X0062242Y0064841D01*
X0062993Y0065592D01*
X0062993Y0068595D02*
X0062242Y0069345D01*
X0060741Y0069345D01*
X0059990Y0068595D01*
X0058389Y0069345D02*
X0058389Y0066343D01*
X0056888Y0064841D01*
X0055387Y0066343D01*
X0055387Y0069345D01*
X0053785Y0067093D02*
X0050783Y0067093D01*
X0051533Y0064841D02*
X0051533Y0069345D01*
X0053785Y0067093D01*
X0053283Y0092841D02*
X0056285Y0092841D01*
X0054784Y0092841D02*
X0054784Y0097345D01*
X0056285Y0095844D01*
X0128841Y0103060D02*
X0139077Y0103060D01*
X0139077Y0121170D01*
X0128841Y0121170D01*
X0128841Y0103060D01*
X0129549Y0088769D02*
X0135061Y0088769D01*
X0135061Y0077272D01*
X0129549Y0077272D01*
X0129549Y0088769D01*
X0161728Y0037481D02*
X0163980Y0037481D01*
X0164731Y0036730D01*
X0163980Y0035980D01*
X0161728Y0035980D01*
X0161728Y0034478D02*
X0164731Y0034478D01*
X0164731Y0035229D01*
X0163980Y0035980D01*
X0163980Y0032877D02*
X0161728Y0032877D01*
X0161728Y0031376D02*
X0163980Y0031376D01*
X0164731Y0032126D01*
X0163980Y0032877D01*
X0163980Y0031376D02*
X0164731Y0030625D01*
X0164731Y0029874D01*
X0161728Y0029874D01*
X0162479Y0028273D02*
X0161728Y0027522D01*
X0161728Y0026021D01*
X0162479Y0025270D01*
X0163980Y0025270D02*
X0164731Y0026772D01*
X0164731Y0027522D01*
X0163980Y0028273D01*
X0162479Y0028273D01*
X0163980Y0025270D02*
X0166232Y0025270D01*
X0166232Y0028273D01*
X0162479Y0023702D02*
X0162479Y0022952D01*
X0161728Y0022952D01*
X0161728Y0023702D01*
X0162479Y0023702D01*
X0161728Y0023702D02*
X0160227Y0022201D01*
X0162479Y0020600D02*
X0161728Y0019849D01*
X0161728Y0018348D01*
X0162479Y0017597D01*
X0163980Y0019099D02*
X0163980Y0019849D01*
X0163230Y0020600D01*
X0162479Y0020600D01*
X0163980Y0019849D02*
X0164731Y0020600D01*
X0165482Y0020600D01*
X0166232Y0019849D01*
X0166232Y0018348D01*
X0165482Y0017597D01*
X0171728Y0021597D02*
X0176232Y0024600D01*
X0175482Y0026201D02*
X0176232Y0026952D01*
X0176232Y0028453D01*
X0175482Y0029204D01*
X0174731Y0029204D01*
X0171728Y0026201D01*
X0171728Y0029204D01*
X0171728Y0024600D02*
X0176232Y0021597D01*
M02*
